<mxfile host="Electron" modified="2023-07-09T13:48:56.595Z" agent="Mozilla/5.0 (X11; Linux x86_64) AppleWebKit/537.36 (KHTML, like Gecko) draw.io/21.2.1 Chrome/112.0.5615.87 Electron/24.1.2 Safari/537.36" etag="9wtcJH82sDAJxNLISEgW" version="21.2.1" type="device" pages="2">
  <diagram name="BEAN-1" id="ouYbXfGhrjFWF28N9OVX">
    <mxGraphModel dx="2155" dy="2343" grid="1" gridSize="10" guides="1" tooltips="1" connect="1" arrows="1" fold="1" page="1" pageScale="1" pageWidth="850" pageHeight="1100" math="0" shadow="0">
      <root>
        <mxCell id="0" />
        <mxCell id="1" parent="0" />
        <mxCell id="K0L0Q3rgMGzgViolmx8t-11" style="edgeStyle=orthogonalEdgeStyle;shape=connector;rounded=0;orthogonalLoop=1;jettySize=auto;html=1;exitX=0.5;exitY=0;exitDx=0;exitDy=0;entryX=0;entryY=0.5;entryDx=0;entryDy=0;labelBackgroundColor=default;strokeColor=default;strokeWidth=3;fontFamily=Helvetica;fontSize=11;fontColor=default;endArrow=none;endFill=0;" parent="1" source="01i2UeO-KrYldI_20bgV-112" target="jgecQRoI-UJ5eHJaAyyf-83" edge="1">
          <mxGeometry relative="1" as="geometry">
            <Array as="points">
              <mxPoint x="529" y="10" />
              <mxPoint x="180" y="10" />
              <mxPoint x="180" y="-254" />
            </Array>
          </mxGeometry>
        </mxCell>
        <mxCell id="01i2UeO-KrYldI_20bgV-112" value="" style="whiteSpace=wrap;html=1;strokeWidth=3;" parent="1" vertex="1">
          <mxGeometry x="404" y="90" width="250" height="150" as="geometry" />
        </mxCell>
        <mxCell id="jgecQRoI-UJ5eHJaAyyf-1" value="" style="group" parent="1" vertex="1" connectable="0">
          <mxGeometry x="331" y="-77" width="99" height="40" as="geometry" />
        </mxCell>
        <mxCell id="jgecQRoI-UJ5eHJaAyyf-2" style="edgeStyle=orthogonalEdgeStyle;shape=connector;rounded=0;orthogonalLoop=1;jettySize=auto;html=1;exitX=0.5;exitY=0.25;exitDx=0;exitDy=0;exitPerimeter=0;labelBackgroundColor=default;strokeColor=default;strokeWidth=3;fontFamily=Helvetica;fontSize=12;fontColor=default;endArrow=none;endFill=0;" parent="jgecQRoI-UJ5eHJaAyyf-1" source="jgecQRoI-UJ5eHJaAyyf-4" edge="1">
          <mxGeometry relative="1" as="geometry">
            <mxPoint x="49.5" y="-3" as="targetPoint" />
          </mxGeometry>
        </mxCell>
        <mxCell id="jgecQRoI-UJ5eHJaAyyf-3" value="&lt;font style=&quot;font-size: 12px;&quot;&gt;ImmSel&lt;/font&gt;" style="edgeLabel;html=1;align=center;verticalAlign=middle;resizable=0;points=[];fontSize=14;fontFamily=Helvetica;fontColor=default;fontStyle=0" parent="jgecQRoI-UJ5eHJaAyyf-2" vertex="1" connectable="0">
          <mxGeometry x="0.4457" y="1" relative="1" as="geometry">
            <mxPoint x="-3" y="-11" as="offset" />
          </mxGeometry>
        </mxCell>
        <mxCell id="jgecQRoI-UJ5eHJaAyyf-4" value="" style="shape=stencil(pZPdjsIgEIWfhluDYNPrFfU9ENktEYEAq+vb79QB40+rq5s0Tc859GOYTgkXqZNBE0Y7wheEsRmFG8gDyiktWqagVUZzL6ORa6sxSTn6rT6YTS4I4zodTe5TviT0A9b0FxfKOwcQ4126Si5ygEnj4F36g7Cy/bGoSdugEWCLnc46ljrRJWz1Z/KkuUGz5nXI9IbxUnVcgDPWFC7WUm2/ov92m8FyguwbfhfUeOf3eqyNVQ6ftBKscReE8yQcr4j/QczeYLxDUNYn/eDDgj/STC4+jbU44Q8ATxf0FHjyQSqTS+2knVfdLvAYylsfzymqmg0Oz92InFz8pU/GLw==);whiteSpace=wrap;html=1;fillStyle=solid;strokeWidth=3;labelBackgroundColor=none;rotation=0;" parent="jgecQRoI-UJ5eHJaAyyf-1" vertex="1">
          <mxGeometry width="99" height="40" as="geometry" />
        </mxCell>
        <mxCell id="jgecQRoI-UJ5eHJaAyyf-5" value="&lt;b&gt;Extnd&lt;/b&gt;" style="text;html=1;strokeColor=none;fillColor=none;align=center;verticalAlign=middle;whiteSpace=wrap;rounded=0;points=[];fontSize=16;" parent="jgecQRoI-UJ5eHJaAyyf-1" vertex="1">
          <mxGeometry x="28.076400000000014" y="20" width="49.5" height="14" as="geometry" />
        </mxCell>
        <mxCell id="jgecQRoI-UJ5eHJaAyyf-6" style="edgeStyle=orthogonalEdgeStyle;shape=connector;rounded=0;orthogonalLoop=1;jettySize=auto;html=1;exitX=1;exitY=0.5;exitDx=0;exitDy=0;labelBackgroundColor=default;strokeColor=default;strokeWidth=3;fontFamily=Helvetica;fontSize=12;fontColor=default;endArrow=none;endFill=0;entryX=0;entryY=0.75;entryDx=0;entryDy=0;" parent="1" source="jgecQRoI-UJ5eHJaAyyf-10" target="jgecQRoI-UJ5eHJaAyyf-23" edge="1">
          <mxGeometry relative="1" as="geometry">
            <mxPoint x="644" y="-129.66666666666652" as="targetPoint" />
            <mxPoint x="562" y="-133" as="sourcePoint" />
          </mxGeometry>
        </mxCell>
        <mxCell id="jgecQRoI-UJ5eHJaAyyf-7" style="edgeStyle=orthogonalEdgeStyle;shape=connector;rounded=0;orthogonalLoop=1;jettySize=auto;html=1;exitX=0;exitY=0.25;exitDx=0;exitDy=0;labelBackgroundColor=default;strokeColor=default;strokeWidth=3;fontFamily=Helvetica;fontSize=12;fontColor=default;endArrow=none;endFill=0;entryX=1;entryY=0.5;entryDx=0;entryDy=0;" parent="1" source="jgecQRoI-UJ5eHJaAyyf-23" target="jgecQRoI-UJ5eHJaAyyf-15" edge="1">
          <mxGeometry relative="1" as="geometry">
            <mxPoint x="562" y="-238" as="targetPoint" />
          </mxGeometry>
        </mxCell>
        <mxCell id="jgecQRoI-UJ5eHJaAyyf-8" value="" style="group" parent="1" vertex="1" connectable="0">
          <mxGeometry x="525.0000000000001" y="-190" width="20" height="60" as="geometry" />
        </mxCell>
        <mxCell id="jgecQRoI-UJ5eHJaAyyf-9" style="edgeStyle=orthogonalEdgeStyle;shape=connector;rounded=0;orthogonalLoop=1;jettySize=auto;html=1;exitX=0.5;exitY=0.12;exitDx=0;exitDy=0;exitPerimeter=0;labelBackgroundColor=default;strokeColor=default;strokeWidth=2;fontFamily=Helvetica;fontSize=12;fontColor=default;endArrow=none;endFill=0;" parent="jgecQRoI-UJ5eHJaAyyf-8" source="jgecQRoI-UJ5eHJaAyyf-10" edge="1">
          <mxGeometry relative="1" as="geometry">
            <mxPoint x="10.137931034482676" y="-10" as="targetPoint" />
          </mxGeometry>
        </mxCell>
        <UserObject label="" tooltip="Mux 2" id="jgecQRoI-UJ5eHJaAyyf-10">
          <mxCell style="shape=stencil(rZRtb4MgEMc/DS/bKMT4erNr+jUQr5WUggFWu336ocDiQ3VrN0OMd3/8cXfAIVKYmjaAcFIjskMY54l7ObP1JgkmNQ0w631XqjktBXjFWK3O0PLKBgKXNWhuO5W8oeTFzekGKZiS0kG4kmakDHQHo1y6f5Obh4XlP4K1xZl3NG6JC1jQXki9F+H90+T838jbbIJO8eOQdMJ4KDpSOM9SuUlRUnY+afUuq7vhNLTbypkQ5Yu6wmIZ1xKNAMHlAEDGhDT7MyJ7AjEm5L/KgwllYGVbnX+hlKQ4ciH8zVkB/Diho7gv1VDGbYgd5a/Rznc+DaaE0t+qt6K2hLZwG57G8ZEmwewmbahkdcRfeFXFxnBU0m4M/4SAwAN3C/xUh3ZSKlEFqUvHh4nJvn+mXWQwDncr3sc9uwuzE997fevrHV8=);whiteSpace=wrap;html=1;fillStyle=solid;strokeWidth=3;labelBackgroundColor=none;fillColor=default;gradientColor=none;gradientDirection=east;" parent="jgecQRoI-UJ5eHJaAyyf-8" vertex="1">
            <mxGeometry width="20" height="60" as="geometry" />
          </mxCell>
        </UserObject>
        <mxCell id="jgecQRoI-UJ5eHJaAyyf-11" value="&lt;b style=&quot;font-size: 16px;&quot;&gt;0&lt;/b&gt;" style="text;html=1;strokeColor=none;fillColor=none;align=center;verticalAlign=middle;whiteSpace=wrap;rounded=0;points=[];fontSize=16;" parent="jgecQRoI-UJ5eHJaAyyf-8" vertex="1">
          <mxGeometry x="5.333333333333333" y="13.714285714285712" width="6.666666666666666" height="8.571428571428571" as="geometry" />
        </mxCell>
        <mxCell id="jgecQRoI-UJ5eHJaAyyf-12" value="&lt;b style=&quot;font-size: 16px;&quot;&gt;1&lt;/b&gt;" style="text;html=1;strokeColor=none;fillColor=none;align=center;verticalAlign=middle;whiteSpace=wrap;rounded=0;points=[];fontSize=16;" parent="jgecQRoI-UJ5eHJaAyyf-8" vertex="1">
          <mxGeometry x="5.333333333333333" y="36" width="6.666666666666666" height="8.571428571428571" as="geometry" />
        </mxCell>
        <mxCell id="jgecQRoI-UJ5eHJaAyyf-13" value="" style="group" parent="1" vertex="1" connectable="0">
          <mxGeometry x="525.0000000000001" y="-268" width="20" height="60" as="geometry" />
        </mxCell>
        <mxCell id="jgecQRoI-UJ5eHJaAyyf-14" style="edgeStyle=orthogonalEdgeStyle;shape=connector;rounded=0;orthogonalLoop=1;jettySize=auto;html=1;exitX=0.5;exitY=0.12;exitDx=0;exitDy=0;exitPerimeter=0;labelBackgroundColor=default;strokeColor=default;strokeWidth=2;fontFamily=Helvetica;fontSize=12;fontColor=default;endArrow=none;endFill=0;" parent="jgecQRoI-UJ5eHJaAyyf-13" source="jgecQRoI-UJ5eHJaAyyf-15" edge="1">
          <mxGeometry relative="1" as="geometry">
            <mxPoint x="9.999999999999886" y="-12" as="targetPoint" />
          </mxGeometry>
        </mxCell>
        <UserObject label="" tooltip="Mux 2" id="jgecQRoI-UJ5eHJaAyyf-15">
          <mxCell style="shape=stencil(rZRtb4MgEMc/DS/bKMT4erNr+jUQr5WUggFWu336ocDiQ3VrN0OMd3/8cXfAIVKYmjaAcFIjskMY54l7ObP1JgkmNQ0w631XqjktBXjFWK3O0PLKBgKXNWhuO5W8oeTFzekGKZiS0kG4kmakDHQHo1y6f5Obh4XlP4K1xZl3NG6JC1jQXki9F+H90+T838jbbIJO8eOQdMJ4KDpSOM9SuUlRUnY+afUuq7vhNLTbypkQ5Yu6wmIZ1xKNAMHlAEDGhDT7MyJ7AjEm5L/KgwllYGVbnX+hlKQ4ciH8zVkB/Diho7gv1VDGbYgd5a/Rznc+DaaE0t+qt6K2hLZwG57G8ZEmwewmbahkdcRfeFXFxnBU0m4M/4SAwAN3C/xUh3ZSKlEFqUvHh4nJvn+mXWQwDncr3sc9uwuzE997fevrHV8=);whiteSpace=wrap;html=1;fillStyle=solid;strokeWidth=3;labelBackgroundColor=none;fillColor=default;gradientColor=none;gradientDirection=east;" parent="jgecQRoI-UJ5eHJaAyyf-13" vertex="1">
            <mxGeometry width="20" height="60" as="geometry" />
          </mxCell>
        </UserObject>
        <mxCell id="jgecQRoI-UJ5eHJaAyyf-16" value="&lt;b style=&quot;font-size: 16px;&quot;&gt;0&lt;/b&gt;" style="text;html=1;strokeColor=none;fillColor=none;align=center;verticalAlign=middle;whiteSpace=wrap;rounded=0;points=[];fontSize=16;" parent="jgecQRoI-UJ5eHJaAyyf-13" vertex="1">
          <mxGeometry x="5.333333333333333" y="13.714285714285712" width="6.666666666666666" height="8.571428571428571" as="geometry" />
        </mxCell>
        <mxCell id="jgecQRoI-UJ5eHJaAyyf-17" value="&lt;b style=&quot;font-size: 16px;&quot;&gt;1&lt;/b&gt;" style="text;html=1;strokeColor=none;fillColor=none;align=center;verticalAlign=middle;whiteSpace=wrap;rounded=0;points=[];fontSize=16;" parent="jgecQRoI-UJ5eHJaAyyf-13" vertex="1">
          <mxGeometry x="5.333333333333333" y="36" width="6.666666666666666" height="8.571428571428571" as="geometry" />
        </mxCell>
        <mxCell id="jgecQRoI-UJ5eHJaAyyf-18" value="" style="group" parent="1" vertex="1" connectable="0">
          <mxGeometry x="604" y="-265" width="50" height="110" as="geometry" />
        </mxCell>
        <mxCell id="jgecQRoI-UJ5eHJaAyyf-19" style="edgeStyle=orthogonalEdgeStyle;shape=connector;rounded=0;orthogonalLoop=1;jettySize=auto;html=1;exitX=0.5;exitY=0.09;exitDx=0;exitDy=0;exitPerimeter=0;labelBackgroundColor=default;strokeColor=default;strokeWidth=3;fontFamily=Helvetica;fontSize=12;fontColor=default;endArrow=none;endFill=0;" parent="jgecQRoI-UJ5eHJaAyyf-18" source="jgecQRoI-UJ5eHJaAyyf-23" edge="1">
          <mxGeometry relative="1" as="geometry">
            <mxPoint x="25.28571428571422" y="-5" as="targetPoint" />
          </mxGeometry>
        </mxCell>
        <mxCell id="jgecQRoI-UJ5eHJaAyyf-20" value="ALUSel" style="edgeLabel;html=1;align=center;verticalAlign=middle;resizable=0;points=[];fontSize=12;fontFamily=Helvetica;fontColor=default;" parent="jgecQRoI-UJ5eHJaAyyf-19" vertex="1" connectable="0">
          <mxGeometry x="0.954" y="1" relative="1" as="geometry">
            <mxPoint y="-9" as="offset" />
          </mxGeometry>
        </mxCell>
        <mxCell id="jgecQRoI-UJ5eHJaAyyf-23" value="" style="shape=stencil(rZThbsIgFIWfhr+GQljjzw2390BkKxGBANPt7Ue91Nhqu9k1aZrec+jHIVxAlMdGeIUIbhDdIEKqCud3rk9Qs1KK6JVMoB1F0GJrFDgxBbdXJ71LBaFto4JOrUtfEX7OY9qHcumszRDtbOw5V36GCW3zv/gLYGX671KtCAPB5ykOKqlQYoOKyNtscr0YecUGaLx+HFINGIulG4IpfoRMeVbGNpLyrZD7j+A+7e5uHi/aJrkxOvvgjmp0g6ZW2gGMtlcA1icsgFjPQPQJl/M1H/E0g1D1W5Kx/4ZgfwohjYtqoj+zPtISlL9rY+BumQD8OqCl5C/nhdSpZEf1S1fXG1iGdMaFiwtV5909AjeNflbhMj0LPw==);whiteSpace=wrap;html=1;fillStyle=solid;strokeWidth=3;labelBackgroundColor=none;" parent="jgecQRoI-UJ5eHJaAyyf-18" vertex="1">
          <mxGeometry width="50" height="110" as="geometry" />
        </mxCell>
        <mxCell id="jgecQRoI-UJ5eHJaAyyf-24" value="&lt;b style=&quot;font-size: 16px;&quot;&gt;ALU&lt;/b&gt;" style="text;html=1;strokeColor=none;fillColor=none;align=center;verticalAlign=middle;whiteSpace=wrap;rounded=0;points=[];fontSize=16;" parent="jgecQRoI-UJ5eHJaAyyf-18" vertex="1">
          <mxGeometry x="17" y="25" width="10" height="10" as="geometry" />
        </mxCell>
        <mxCell id="jgecQRoI-UJ5eHJaAyyf-25" style="edgeStyle=orthogonalEdgeStyle;shape=connector;rounded=0;orthogonalLoop=1;jettySize=auto;html=1;exitX=1;exitY=0.23;exitDx=0;exitDy=0;exitPerimeter=0;entryX=0;entryY=0.25;entryDx=0;entryDy=0;labelBackgroundColor=default;strokeColor=default;strokeWidth=3;fontFamily=Helvetica;fontSize=12;fontColor=default;endArrow=none;endFill=0;" parent="1" source="jgecQRoI-UJ5eHJaAyyf-35" target="jgecQRoI-UJ5eHJaAyyf-15" edge="1">
          <mxGeometry relative="1" as="geometry">
            <mxPoint x="440" y="-253.36000000000013" as="sourcePoint" />
          </mxGeometry>
        </mxCell>
        <mxCell id="jgecQRoI-UJ5eHJaAyyf-27" style="edgeStyle=orthogonalEdgeStyle;shape=connector;rounded=0;orthogonalLoop=1;jettySize=auto;html=1;exitX=1;exitY=0.5;exitDx=0;exitDy=0;entryX=0;entryY=0.75;entryDx=0;entryDy=0;labelBackgroundColor=default;strokeColor=default;strokeWidth=3;fontFamily=Helvetica;fontSize=12;fontColor=default;endArrow=none;endFill=0;" parent="1" source="jgecQRoI-UJ5eHJaAyyf-30" target="jgecQRoI-UJ5eHJaAyyf-15" edge="1">
          <mxGeometry relative="1" as="geometry">
            <Array as="points">
              <mxPoint x="140" y="-254" />
              <mxPoint x="140" y="-330" />
              <mxPoint x="450" y="-330" />
              <mxPoint x="450" y="-223" />
            </Array>
          </mxGeometry>
        </mxCell>
        <mxCell id="jgecQRoI-UJ5eHJaAyyf-28" style="edgeStyle=orthogonalEdgeStyle;shape=connector;rounded=0;orthogonalLoop=1;jettySize=auto;html=1;exitX=1;exitY=0.5;exitDx=0;exitDy=0;entryX=0;entryY=0.25;entryDx=0;entryDy=0;labelBackgroundColor=default;strokeColor=default;strokeWidth=3;fontFamily=Helvetica;fontSize=12;fontColor=default;endArrow=none;endFill=0;" parent="1" source="jgecQRoI-UJ5eHJaAyyf-30" target="jgecQRoI-UJ5eHJaAyyf-38" edge="1">
          <mxGeometry relative="1" as="geometry">
            <Array as="points">
              <mxPoint x="140" y="-254" />
              <mxPoint x="140" y="-330" />
              <mxPoint x="559" y="-330" />
            </Array>
          </mxGeometry>
        </mxCell>
        <mxCell id="jgecQRoI-UJ5eHJaAyyf-29" style="edgeStyle=orthogonalEdgeStyle;shape=connector;rounded=0;orthogonalLoop=1;jettySize=auto;html=1;exitX=1;exitY=0.5;exitDx=0;exitDy=0;entryX=0;entryY=0.75;entryDx=0;entryDy=0;labelBackgroundColor=default;strokeColor=default;strokeWidth=3;fontFamily=Helvetica;fontSize=12;fontColor=default;endArrow=none;endFill=0;" parent="1" source="jgecQRoI-UJ5eHJaAyyf-30" target="jgecQRoI-UJ5eHJaAyyf-63" edge="1">
          <mxGeometry relative="1" as="geometry">
            <Array as="points">
              <mxPoint x="140" y="-254" />
              <mxPoint x="140" y="-365" />
            </Array>
          </mxGeometry>
        </mxCell>
        <mxCell id="K0L0Q3rgMGzgViolmx8t-5" style="edgeStyle=orthogonalEdgeStyle;shape=connector;rounded=0;orthogonalLoop=1;jettySize=auto;html=1;exitX=1;exitY=0.5;exitDx=0;exitDy=0;entryX=0;entryY=0.75;entryDx=0;entryDy=0;labelBackgroundColor=default;strokeColor=default;strokeWidth=3;fontFamily=Helvetica;fontSize=11;fontColor=default;endArrow=none;endFill=0;" parent="1" source="jgecQRoI-UJ5eHJaAyyf-30" target="K0L0Q3rgMGzgViolmx8t-2" edge="1">
          <mxGeometry relative="1" as="geometry">
            <Array as="points">
              <mxPoint x="140" y="-254" />
              <mxPoint x="140" y="143" />
            </Array>
          </mxGeometry>
        </mxCell>
        <mxCell id="NUnJx02UUNhQXxhkYbMm-1" style="edgeStyle=orthogonalEdgeStyle;shape=connector;rounded=0;orthogonalLoop=1;jettySize=auto;html=1;exitX=0.5;exitY=1;exitDx=0;exitDy=0;labelBackgroundColor=default;strokeColor=default;strokeWidth=3;fontFamily=Helvetica;fontSize=12;fontColor=default;endArrow=none;endFill=0;" edge="1" parent="1" source="jgecQRoI-UJ5eHJaAyyf-30">
          <mxGeometry relative="1" as="geometry">
            <mxPoint x="100.28571428571422" y="-210" as="targetPoint" />
          </mxGeometry>
        </mxCell>
        <UserObject label="" tooltip="Mux 2" id="jgecQRoI-UJ5eHJaAyyf-30">
          <mxCell style="shape=stencil(tZRtb4MgEMc/DS+7KGTx9WbX9Gsg0kqKYIDVdp9+PC4+1G52myHGuz/+7oDjACp1gzsKYNYAtAUQFpl9WbMPJoom1h0lJvjOWDFccRoUbZQ80Z7VJhKYaKhixqnoDWQvdo4bqCRSCAthUuiRMtAtDDNh/80uARbDX6P19BzszkZoqaEq+PPgBXD3Y3AiXUdxfs/N/yvhbJJxvgaMSutZ2n9UVpicjkq+i/pmOh12ZzsTktzKM108sXsLTQDOxACA/ppQPIB4hEC41HRlnJtVuAaQT6oCrkesScIX0kI9oPLAOA/94A7g2wmOYr9khwkzMSlQvCa72IYEieRSfanBStoS2tDL8K6OF46i6SZtsCBNwresrlO7O0hhNpp90PF+e3dP2bGJTbKSvI6SW05IE6Kdf6a9cTD2N3fc5z270LNr672hoXvHJw==);whiteSpace=wrap;html=1;fillStyle=solid;strokeWidth=3;labelBackgroundColor=none;fillColor=default;gradientColor=none;gradientDirection=east;" parent="1" vertex="1">
            <mxGeometry x="90.00000000000011" y="-284" width="20" height="60" as="geometry" />
          </mxCell>
        </UserObject>
        <mxCell id="jgecQRoI-UJ5eHJaAyyf-34" value="" style="group" parent="1" vertex="1" connectable="0">
          <mxGeometry x="320" y="-292" width="110" height="168" as="geometry" />
        </mxCell>
        <UserObject label="" tooltip="Mux 2" id="jgecQRoI-UJ5eHJaAyyf-35">
          <mxCell style="shape=stencil(rZThboMgEMefho9tLBfH582u2Wsg0kqKYIDVbk8/EFx01q7tZojx7o8/7i7cIShsTVuOcFYj2CKMSeZf3uyiCcmktuXMRd+JGkFLyaNindFH3onKJYJQNTfCBRVeUfbs94QFBdNKeYjQyk6Uke5hVCj/b3aOsHT8R7LWebRbf0LDHTfRv4lehHc3g9eETNH3gKHwnqV0oCgpOx6MflfVxXBaGko1Ewa50Se+WIBriQ4AKdQIAP9NIA8gHiEwqS2/85y/lwvDhJA/QHi6PYb+Ii3cByj2QsrYXlcAv24IFP+lW8qES0Eh8jLYZBsDZFpq861Ga9CW0I6fRy21ySeJQzLDphVVrB7wjaiqYXrstXIrKz55QuCRu+PiUKeZU2pZJSmkE8PEsOufn6NmtN4uVryPe9bQs7btvXE+9o4v);whiteSpace=wrap;html=1;fillStyle=solid;strokeWidth=3;labelBackgroundColor=none;fillColor=default;gradientColor=none;gradientDirection=east;points=[[0,0.23,0,0,0],[0,0.43,0,0,0],[0,0.63,0,0,0],[0,0.82,0,0,0],[0.77,0,0,0,0],[1,0.23,0,0,0],[1,0.5,0,0,0]];" parent="jgecQRoI-UJ5eHJaAyyf-34" vertex="1">
            <mxGeometry width="110" height="168" as="geometry" />
          </mxCell>
        </UserObject>
        <mxCell id="jgecQRoI-UJ5eHJaAyyf-36" value="&lt;b&gt;RegFile&lt;/b&gt;" style="text;html=1;strokeColor=none;fillColor=none;align=center;verticalAlign=middle;whiteSpace=wrap;rounded=0;points=[];fontSize=16;" parent="jgecQRoI-UJ5eHJaAyyf-34" vertex="1">
          <mxGeometry x="9.53844036697248" y="6" width="50.45871559633027" height="14" as="geometry" />
        </mxCell>
        <mxCell id="jgecQRoI-UJ5eHJaAyyf-37" value="" style="group;fontFamily=Helvetica;fontSize=12;fontColor=default;" parent="1" vertex="1" connectable="0">
          <mxGeometry x="559.0000000000002" y="-342" width="27.27" height="60" as="geometry" />
        </mxCell>
        <mxCell id="jgecQRoI-UJ5eHJaAyyf-38" value="" style="shape=stencil(rZThbsIgFIWfhr9LC2GNPx1u74GIlohAgOn29rv1UmOn7bbOpGl6zqEfF3opYSK1MmhCq5awFaG0riu4gz6h5kXKFLTK6B1lNHJtNSYpR7/XJ7PJBWFcq6PJXcpeSbWEMd3FhPLOAcR4lwbJVQ4waRy8W30grEz/WdQT5WgEmOKgs46lbHQJfZtNbh5Grr+R/wRmApyxnWJiLdV+F/2729wtJ8juK9wEfXzwRz26A1ML7QHWuCsAHxIegFjMQAwJlwaej3ieQaj5AMH5f4vgvypCWZ/0RHuCP9ISTGyNtXh4JwA/Dugo8OSDVCaX2knz0utmhctQ3vp4SVH12d0jcNPoZxf/VmfjCw==);whiteSpace=wrap;html=1;fillStyle=solid;strokeWidth=3;labelBackgroundColor=none;fontFamily=Helvetica;fontSize=12;fontColor=default;" parent="jgecQRoI-UJ5eHJaAyyf-37" vertex="1">
          <mxGeometry width="27.27" height="60" as="geometry" />
        </mxCell>
        <mxCell id="jgecQRoI-UJ5eHJaAyyf-39" value="&lt;b style=&quot;font-size: 16px;&quot;&gt;+&lt;/b&gt;" style="text;html=1;strokeColor=none;fillColor=none;align=center;verticalAlign=middle;whiteSpace=wrap;rounded=0;points=[];fontSize=12;fontFamily=Helvetica;fontColor=default;" parent="jgecQRoI-UJ5eHJaAyyf-37" vertex="1">
          <mxGeometry x="14.52" y="26.25" width="7.499999999999999" height="7.5" as="geometry" />
        </mxCell>
        <mxCell id="jgecQRoI-UJ5eHJaAyyf-40" style="edgeStyle=orthogonalEdgeStyle;shape=connector;rounded=0;orthogonalLoop=1;jettySize=auto;html=1;exitX=1;exitY=0.25;exitDx=0;exitDy=0;entryX=0;entryY=0.23;entryDx=0;entryDy=0;entryPerimeter=0;labelBackgroundColor=default;strokeColor=default;strokeWidth=3;fontFamily=Helvetica;fontSize=12;fontColor=default;endArrow=none;endFill=0;" parent="1" target="jgecQRoI-UJ5eHJaAyyf-35" edge="1">
          <mxGeometry relative="1" as="geometry">
            <mxPoint x="228" y="-254" as="sourcePoint" />
          </mxGeometry>
        </mxCell>
        <mxCell id="jgecQRoI-UJ5eHJaAyyf-41" style="edgeStyle=orthogonalEdgeStyle;shape=connector;rounded=0;orthogonalLoop=1;jettySize=auto;html=1;exitX=1;exitY=0.25;exitDx=0;exitDy=0;entryX=0;entryY=0.75;entryDx=0;entryDy=0;labelBackgroundColor=default;strokeColor=default;strokeWidth=3;fontFamily=Helvetica;fontSize=12;fontColor=default;endArrow=none;endFill=0;" parent="1" target="jgecQRoI-UJ5eHJaAyyf-4" edge="1">
          <mxGeometry relative="1" as="geometry">
            <Array as="points">
              <mxPoint x="270" y="-254" />
              <mxPoint x="270" y="-47" />
            </Array>
            <mxPoint x="228" y="-254" as="sourcePoint" />
          </mxGeometry>
        </mxCell>
        <mxCell id="jgecQRoI-UJ5eHJaAyyf-42" style="edgeStyle=orthogonalEdgeStyle;shape=connector;rounded=0;orthogonalLoop=1;jettySize=auto;html=1;exitX=1;exitY=0.25;exitDx=0;exitDy=0;entryX=0;entryY=0.43;entryDx=0;entryDy=0;entryPerimeter=0;labelBackgroundColor=default;strokeColor=default;strokeWidth=3;fontFamily=Helvetica;fontSize=12;fontColor=default;endArrow=none;endFill=0;" parent="1" target="jgecQRoI-UJ5eHJaAyyf-35" edge="1">
          <mxGeometry relative="1" as="geometry">
            <Array as="points">
              <mxPoint x="270" y="-254" />
              <mxPoint x="270" y="-220" />
            </Array>
            <mxPoint x="228" y="-254" as="sourcePoint" />
          </mxGeometry>
        </mxCell>
        <mxCell id="jgecQRoI-UJ5eHJaAyyf-43" style="edgeStyle=orthogonalEdgeStyle;shape=connector;rounded=0;orthogonalLoop=1;jettySize=auto;html=1;entryX=0;entryY=0.63;entryDx=0;entryDy=0;entryPerimeter=0;labelBackgroundColor=default;strokeColor=default;strokeWidth=3;fontFamily=Helvetica;fontSize=12;fontColor=default;endArrow=none;endFill=0;exitX=1;exitY=0.5;exitDx=0;exitDy=0;" parent="1" source="jgecQRoI-UJ5eHJaAyyf-83" target="jgecQRoI-UJ5eHJaAyyf-35" edge="1">
          <mxGeometry relative="1" as="geometry">
            <Array as="points">
              <mxPoint x="270" y="-254" />
              <mxPoint x="270" y="-186" />
            </Array>
            <mxPoint x="228" y="-254" as="sourcePoint" />
          </mxGeometry>
        </mxCell>
        <mxCell id="jgecQRoI-UJ5eHJaAyyf-45" style="edgeStyle=orthogonalEdgeStyle;shape=connector;rounded=0;orthogonalLoop=1;jettySize=auto;html=1;exitX=0.5;exitY=0;exitDx=0;exitDy=0;entryX=0;entryY=0.2;entryDx=0;entryDy=0;labelBackgroundColor=default;strokeColor=default;strokeWidth=3;fontFamily=Helvetica;fontSize=12;fontColor=default;endArrow=none;endFill=0;" parent="1" source="01i2UeO-KrYldI_20bgV-112" target="jgecQRoI-UJ5eHJaAyyf-53" edge="1">
          <mxGeometry relative="1" as="geometry">
            <mxPoint x="806" y="-210" as="sourcePoint" />
            <Array as="points">
              <mxPoint x="529" y="10" />
              <mxPoint x="720" y="10" />
              <mxPoint x="720" y="-210" />
            </Array>
          </mxGeometry>
        </mxCell>
        <mxCell id="jgecQRoI-UJ5eHJaAyyf-46" style="edgeStyle=orthogonalEdgeStyle;shape=connector;rounded=0;orthogonalLoop=1;jettySize=auto;html=1;exitX=1;exitY=0.5;exitDx=0;exitDy=0;exitPerimeter=0;entryX=0;entryY=0.25;entryDx=0;entryDy=0;labelBackgroundColor=default;strokeColor=default;strokeWidth=3;fontFamily=Helvetica;fontSize=12;fontColor=default;endArrow=none;endFill=0;" parent="1" source="jgecQRoI-UJ5eHJaAyyf-35" target="K0L0Q3rgMGzgViolmx8t-2" edge="1">
          <mxGeometry relative="1" as="geometry">
            <Array as="points">
              <mxPoint x="450" y="-208" />
              <mxPoint x="450" y="50" />
              <mxPoint x="270" y="50" />
              <mxPoint x="270" y="113" />
            </Array>
            <mxPoint x="716" y="-140" as="targetPoint" />
          </mxGeometry>
        </mxCell>
        <mxCell id="jgecQRoI-UJ5eHJaAyyf-47" style="edgeStyle=orthogonalEdgeStyle;shape=connector;rounded=0;orthogonalLoop=1;jettySize=auto;html=1;exitX=1;exitY=0.5;exitDx=0;exitDy=0;entryX=0;entryY=0.75;entryDx=0;entryDy=0;labelBackgroundColor=default;strokeColor=default;strokeWidth=3;fontFamily=Helvetica;fontSize=12;fontColor=default;endArrow=none;endFill=0;" parent="1" source="jgecQRoI-UJ5eHJaAyyf-4" target="jgecQRoI-UJ5eHJaAyyf-10" edge="1">
          <mxGeometry relative="1" as="geometry">
            <Array as="points">
              <mxPoint x="490" y="-57" />
              <mxPoint x="490" y="-145" />
            </Array>
          </mxGeometry>
        </mxCell>
        <mxCell id="jgecQRoI-UJ5eHJaAyyf-48" style="edgeStyle=orthogonalEdgeStyle;shape=connector;rounded=0;orthogonalLoop=1;jettySize=auto;html=1;exitX=1;exitY=0.5;exitDx=0;exitDy=0;entryX=0;entryY=0.75;entryDx=0;entryDy=0;labelBackgroundColor=default;strokeColor=default;strokeWidth=3;fontFamily=Helvetica;fontSize=12;fontColor=default;endArrow=none;endFill=0;" parent="1" source="jgecQRoI-UJ5eHJaAyyf-4" target="jgecQRoI-UJ5eHJaAyyf-38" edge="1">
          <mxGeometry relative="1" as="geometry">
            <Array as="points">
              <mxPoint x="490" y="-57" />
              <mxPoint x="490" y="-297" />
            </Array>
          </mxGeometry>
        </mxCell>
        <mxCell id="jgecQRoI-UJ5eHJaAyyf-49" style="edgeStyle=orthogonalEdgeStyle;shape=connector;rounded=0;orthogonalLoop=1;jettySize=auto;html=1;exitX=1;exitY=0.5;exitDx=0;exitDy=0;exitPerimeter=0;entryX=0;entryY=0.25;entryDx=0;entryDy=0;labelBackgroundColor=default;strokeColor=default;strokeWidth=3;fontFamily=Helvetica;fontSize=12;fontColor=default;endArrow=none;endFill=0;" parent="1" source="jgecQRoI-UJ5eHJaAyyf-35" target="jgecQRoI-UJ5eHJaAyyf-10" edge="1">
          <mxGeometry relative="1" as="geometry">
            <Array as="points">
              <mxPoint x="450" y="-208" />
              <mxPoint x="450" y="-175" />
            </Array>
          </mxGeometry>
        </mxCell>
        <mxCell id="jgecQRoI-UJ5eHJaAyyf-50" value="" style="group" parent="1" vertex="1" connectable="0">
          <mxGeometry x="771" y="-231" width="20" height="100" as="geometry" />
        </mxCell>
        <mxCell id="jgecQRoI-UJ5eHJaAyyf-51" style="edgeStyle=orthogonalEdgeStyle;shape=connector;rounded=0;orthogonalLoop=1;jettySize=auto;html=1;exitX=0.5;exitY=0.07;exitDx=0;exitDy=0;exitPerimeter=0;labelBackgroundColor=default;strokeColor=default;strokeWidth=3;fontFamily=Helvetica;fontSize=12;fontColor=default;endArrow=none;endFill=0;" parent="jgecQRoI-UJ5eHJaAyyf-50" source="jgecQRoI-UJ5eHJaAyyf-53" edge="1">
          <mxGeometry relative="1" as="geometry">
            <mxPoint x="10" y="-9" as="targetPoint" />
          </mxGeometry>
        </mxCell>
        <mxCell id="jgecQRoI-UJ5eHJaAyyf-52" value="RegSel" style="edgeLabel;html=1;align=center;verticalAlign=middle;resizable=0;points=[];fontSize=12;fontFamily=Helvetica;fontColor=default;" parent="jgecQRoI-UJ5eHJaAyyf-51" vertex="1" connectable="0">
          <mxGeometry x="0.8762" y="-1" relative="1" as="geometry">
            <mxPoint y="-11" as="offset" />
          </mxGeometry>
        </mxCell>
        <UserObject label="" tooltip="Mux 2" id="jgecQRoI-UJ5eHJaAyyf-53">
          <mxCell style="shape=stencil(tZTdcoMgEIWfhstkFGptL1vTTF8DkUQmCA7QmPbpiwIdf6JtksZhHPcc/NzFBYAyXeKaAhiVAG0AhHEc2buNGxcjH2JdU2KcdsSK4ZxT52ij5IE2rDAewURJFTOti95A9GLntANlRAphIUwKPXB6voVhJuy70cnB/Oc/fbQOQm0/UVFDlU/bqQBuryY/3I38eDfy07+R18kIHaWXQ+IRI7kkO5RZZa5FUJZjctgr+SGKs+nUuG2/iRHsSh7p7DIuFRoAnIkeAA0JcXIz4vkKxCiJ+E+FEC41XfivVp9ZS5TtGOduuy8Afp3QUuyTrDFhxicP0tcQpxtXBpFcqh/XRcGbQxt66rfjsKeRD9tJKyxIGfAVK4pwmu2kMCvNvqhHwJ7cULYv/RmYS154qy3HpQnRtrvGR19vvJ9d8S7vyWaYtHynugO7E74B);whiteSpace=wrap;html=1;fillStyle=solid;strokeWidth=3;labelBackgroundColor=none;fillColor=default;gradientColor=none;gradientDirection=east;rotation=0;" parent="jgecQRoI-UJ5eHJaAyyf-50" vertex="1">
            <mxGeometry y="1" width="20" height="100" as="geometry" />
          </mxCell>
        </UserObject>
        <mxCell id="jgecQRoI-UJ5eHJaAyyf-54" value="&lt;b style=&quot;font-size: 16px;&quot;&gt;0&lt;/b&gt;" style="text;html=1;strokeColor=none;fillColor=none;align=center;verticalAlign=middle;whiteSpace=wrap;rounded=0;points=[];fontSize=16;" parent="jgecQRoI-UJ5eHJaAyyf-50" vertex="1">
          <mxGeometry x="7.4666666666666615" y="14.714285714285722" width="5.333333333333333" height="8.571428571428571" as="geometry" />
        </mxCell>
        <mxCell id="jgecQRoI-UJ5eHJaAyyf-55" value="&lt;b style=&quot;font-size: 16px;&quot;&gt;1&lt;/b&gt;" style="text;html=1;strokeColor=none;fillColor=none;align=center;verticalAlign=middle;whiteSpace=wrap;rounded=0;points=[];fontSize=16;" parent="jgecQRoI-UJ5eHJaAyyf-50" vertex="1">
          <mxGeometry x="7.4666666666666615" y="33" width="5.333333333333333" height="8.571428571428571" as="geometry" />
        </mxCell>
        <mxCell id="jgecQRoI-UJ5eHJaAyyf-56" value="&lt;b style=&quot;font-size: 16px;&quot;&gt;2&lt;/b&gt;" style="text;html=1;strokeColor=none;fillColor=none;align=center;verticalAlign=middle;whiteSpace=wrap;rounded=0;points=[];fontSize=16;" parent="jgecQRoI-UJ5eHJaAyyf-50" vertex="1">
          <mxGeometry x="7.4666666666666615" y="52.70999999999998" width="5.333333333333333" height="8.571428571428571" as="geometry" />
        </mxCell>
        <mxCell id="jgecQRoI-UJ5eHJaAyyf-57" value="&lt;b style=&quot;font-size: 16px;&quot;&gt;3&lt;/b&gt;" style="text;html=1;strokeColor=none;fillColor=none;align=center;verticalAlign=middle;whiteSpace=wrap;rounded=0;points=[];fontSize=16;" parent="jgecQRoI-UJ5eHJaAyyf-50" vertex="1">
          <mxGeometry x="7.4666666666666615" y="73" width="5.333333333333333" height="8.571428571428571" as="geometry" />
        </mxCell>
        <mxCell id="jgecQRoI-UJ5eHJaAyyf-58" style="edgeStyle=orthogonalEdgeStyle;shape=connector;rounded=0;orthogonalLoop=1;jettySize=auto;html=1;exitX=1;exitY=0.5;exitDx=0;exitDy=0;entryX=0;entryY=0.4;entryDx=0;entryDy=0;labelBackgroundColor=default;strokeColor=default;strokeWidth=3;fontFamily=Helvetica;fontSize=12;fontColor=default;endArrow=none;endFill=0;" parent="1" source="jgecQRoI-UJ5eHJaAyyf-23" target="jgecQRoI-UJ5eHJaAyyf-53" edge="1">
          <mxGeometry relative="1" as="geometry">
            <Array as="points">
              <mxPoint x="690" y="-210" />
              <mxPoint x="690" y="-190" />
            </Array>
          </mxGeometry>
        </mxCell>
        <mxCell id="jgecQRoI-UJ5eHJaAyyf-59" style="edgeStyle=orthogonalEdgeStyle;shape=connector;rounded=0;orthogonalLoop=1;jettySize=auto;html=1;exitX=1;exitY=0.5;exitDx=0;exitDy=0;entryX=0;entryY=0.6;entryDx=0;entryDy=0;labelBackgroundColor=default;strokeColor=default;strokeWidth=3;fontFamily=Helvetica;fontSize=12;fontColor=default;endArrow=none;endFill=0;" parent="1" source="jgecQRoI-UJ5eHJaAyyf-4" target="jgecQRoI-UJ5eHJaAyyf-53" edge="1">
          <mxGeometry relative="1" as="geometry">
            <Array as="points">
              <mxPoint x="660" y="-57" />
              <mxPoint x="660" y="-170" />
            </Array>
          </mxGeometry>
        </mxCell>
        <mxCell id="jgecQRoI-UJ5eHJaAyyf-60" style="edgeStyle=orthogonalEdgeStyle;shape=connector;rounded=0;orthogonalLoop=1;jettySize=auto;html=1;exitX=0;exitY=0.82;exitDx=0;exitDy=0;exitPerimeter=0;labelBackgroundColor=default;strokeColor=default;strokeWidth=3;fontFamily=Helvetica;fontSize=12;fontColor=default;endArrow=none;endFill=0;entryX=1;entryY=0.5;entryDx=0;entryDy=0;" parent="1" source="jgecQRoI-UJ5eHJaAyyf-35" target="jgecQRoI-UJ5eHJaAyyf-53" edge="1">
          <mxGeometry relative="1" as="geometry">
            <mxPoint x="440" y="-20" as="targetPoint" />
            <Array as="points">
              <mxPoint x="240" y="-154" />
              <mxPoint x="240" y="-20" />
              <mxPoint x="820" y="-20" />
              <mxPoint x="820" y="-180" />
            </Array>
          </mxGeometry>
        </mxCell>
        <mxCell id="jgecQRoI-UJ5eHJaAyyf-61" value="" style="group" parent="1" vertex="1" connectable="0">
          <mxGeometry x="210" y="-410" width="27.27" height="60" as="geometry" />
        </mxCell>
        <mxCell id="jgecQRoI-UJ5eHJaAyyf-62" style="edgeStyle=orthogonalEdgeStyle;shape=connector;rounded=0;orthogonalLoop=1;jettySize=auto;html=1;exitX=0;exitY=0.25;exitDx=0;exitDy=0;labelBackgroundColor=default;strokeColor=default;strokeWidth=3;fontFamily=Helvetica;fontSize=12;fontColor=default;endArrow=none;endFill=0;" parent="jgecQRoI-UJ5eHJaAyyf-61" source="jgecQRoI-UJ5eHJaAyyf-63" edge="1">
          <mxGeometry relative="1" as="geometry">
            <mxPoint x="-30" y="15" as="targetPoint" />
          </mxGeometry>
        </mxCell>
        <mxCell id="jgecQRoI-UJ5eHJaAyyf-63" value="" style="shape=stencil(rZThbsIgFIWfhr9LC2GNPx1u74GIlohAgOn29rv1UmOn7bbOpGl6zqEfF3opYSK1MmhCq5awFaG0riu4gz6h5kXKFLTK6B1lNHJtNSYpR7/XJ7PJBWFcq6PJXcpeSbWEMd3FhPLOAcR4lwbJVQ4waRy8W30grEz/WdQT5WgEmOKgs46lbHQJfZtNbh5Grr+R/wRmApyxnWJiLdV+F/2729wtJ8juK9wEfXzwRz26A1ML7QHWuCsAHxIegFjMQAwJlwaej3ieQaj5AMH5f4vgvypCWZ/0RHuCP9ISTGyNtXh4JwA/Dugo8OSDVCaX2knz0utmhctQ3vp4SVH12d0jcNPoZxf/VmfjCw==);whiteSpace=wrap;html=1;fillStyle=solid;strokeWidth=3;labelBackgroundColor=none;" parent="jgecQRoI-UJ5eHJaAyyf-61" vertex="1">
          <mxGeometry width="27.27" height="60" as="geometry" />
        </mxCell>
        <mxCell id="jgecQRoI-UJ5eHJaAyyf-64" value="&lt;b style=&quot;font-size: 16px;&quot;&gt;+&lt;/b&gt;" style="text;html=1;strokeColor=none;fillColor=none;align=center;verticalAlign=middle;whiteSpace=wrap;rounded=0;points=[];fontSize=16;" parent="jgecQRoI-UJ5eHJaAyyf-61" vertex="1">
          <mxGeometry x="14.52" y="26.25" width="7.499999999999999" height="7.5" as="geometry" />
        </mxCell>
        <mxCell id="jgecQRoI-UJ5eHJaAyyf-65" value="&lt;b&gt;&lt;font style=&quot;font-size: 18px;&quot;&gt;4&lt;/font&gt;&lt;/b&gt;" style="text;html=1;align=center;verticalAlign=middle;resizable=0;points=[];autosize=1;strokeColor=none;fillColor=none;fontSize=12;fontFamily=Helvetica;fontColor=default;" parent="1" vertex="1">
          <mxGeometry x="155" y="-416" width="30" height="40" as="geometry" />
        </mxCell>
        <mxCell id="jgecQRoI-UJ5eHJaAyyf-66" value="" style="group" parent="1" vertex="1" connectable="0">
          <mxGeometry x="741" y="-372" width="20" height="79" as="geometry" />
        </mxCell>
        <mxCell id="jgecQRoI-UJ5eHJaAyyf-67" style="edgeStyle=orthogonalEdgeStyle;shape=connector;rounded=0;orthogonalLoop=1;jettySize=auto;html=1;exitX=0.5;exitY=0.07;exitDx=0;exitDy=0;exitPerimeter=0;labelBackgroundColor=default;strokeColor=default;strokeWidth=3;fontFamily=Helvetica;fontSize=12;fontColor=default;endArrow=none;endFill=0;" parent="jgecQRoI-UJ5eHJaAyyf-66" source="jgecQRoI-UJ5eHJaAyyf-69" edge="1">
          <mxGeometry relative="1" as="geometry">
            <mxPoint x="10" y="-8" as="targetPoint" />
          </mxGeometry>
        </mxCell>
        <mxCell id="jgecQRoI-UJ5eHJaAyyf-68" value="PCSel" style="edgeLabel;html=1;align=center;verticalAlign=middle;resizable=0;points=[];fontSize=12;fontFamily=Helvetica;fontColor=default;" parent="jgecQRoI-UJ5eHJaAyyf-67" vertex="1" connectable="0">
          <mxGeometry x="0.8665" relative="1" as="geometry">
            <mxPoint x="-1" y="-9" as="offset" />
          </mxGeometry>
        </mxCell>
        <UserObject label="" tooltip="Mux 2" id="jgecQRoI-UJ5eHJaAyyf-69">
          <mxCell style="shape=stencil(tZRtb4MgEMc/DS/bIMSYvdzsmn4NRFpJEQyw2u3TDwQXH6pbu80Q490ff9zBcQDnpiINAwhWAO8AQkkC3dvZbbBxNIlpGLXBdyGak0KwoBir1Zm1vLQRwWXFNLdexa8APrs5fuCcKikdhCtpRspAdzDCpfsXXgMsLv8erS1Kg6NxS9TMMh3DDl6A9g+TU/hf5OzPYt6mEzTM7ock08TviQ7nzrN0kDgvCD2ftHqT5c1wGuKLZCb0cq0ubHEb1xLtAYLLAQCPCUn6a8TTA4hJEMmPEqFCGbZyrs6/sJc4P3IhwqVcAXw7wVPcl2oI5TYGD7KX3s52IQ2qhNJfarB6bQlt2XVYjuOaxtH0kzZE0qrH17ws+55zVNJuDP9gEYEG7pbxUxU7VaFEGSWfTggT4X33TBvUYBxu7ngX9+wyzEq+84a22jk+AQ==);whiteSpace=wrap;html=1;fillStyle=solid;strokeWidth=3;labelBackgroundColor=none;fillColor=default;gradientColor=none;gradientDirection=east;rotation=0;" parent="jgecQRoI-UJ5eHJaAyyf-66" vertex="1">
            <mxGeometry width="20" height="79" as="geometry" />
          </mxCell>
        </UserObject>
        <mxCell id="jgecQRoI-UJ5eHJaAyyf-70" value="&lt;b style=&quot;font-size: 16px;&quot;&gt;0&lt;/b&gt;" style="text;html=1;strokeColor=none;fillColor=none;align=center;verticalAlign=middle;whiteSpace=wrap;rounded=0;points=[];fontSize=16;" parent="jgecQRoI-UJ5eHJaAyyf-66" vertex="1">
          <mxGeometry x="7.466666666666697" y="13.714285714285722" width="5.333333333333333" height="8.571428571428571" as="geometry" />
        </mxCell>
        <mxCell id="jgecQRoI-UJ5eHJaAyyf-71" value="&lt;b style=&quot;font-size: 16px;&quot;&gt;1&lt;/b&gt;" style="text;html=1;strokeColor=none;fillColor=none;align=center;verticalAlign=middle;whiteSpace=wrap;rounded=0;points=[];fontSize=16;" parent="jgecQRoI-UJ5eHJaAyyf-66" vertex="1">
          <mxGeometry x="7.466666666666697" y="33" width="5.333333333333333" height="8.571428571428571" as="geometry" />
        </mxCell>
        <mxCell id="jgecQRoI-UJ5eHJaAyyf-72" value="&lt;b style=&quot;font-size: 16px;&quot;&gt;2&lt;/b&gt;" style="text;html=1;strokeColor=none;fillColor=none;align=center;verticalAlign=middle;whiteSpace=wrap;rounded=0;points=[];fontSize=16;" parent="jgecQRoI-UJ5eHJaAyyf-66" vertex="1">
          <mxGeometry x="7.466666666666697" y="52.70999999999998" width="5.333333333333333" height="8.571428571428571" as="geometry" />
        </mxCell>
        <mxCell id="jgecQRoI-UJ5eHJaAyyf-73" style="edgeStyle=orthogonalEdgeStyle;shape=connector;rounded=0;orthogonalLoop=1;jettySize=auto;html=1;exitX=1;exitY=0.5;exitDx=0;exitDy=0;entryX=0;entryY=0.75;entryDx=0;entryDy=0;labelBackgroundColor=default;strokeColor=default;strokeWidth=3;fontFamily=Helvetica;fontSize=12;fontColor=default;endArrow=none;endFill=0;" parent="1" source="jgecQRoI-UJ5eHJaAyyf-38" target="jgecQRoI-UJ5eHJaAyyf-69" edge="1">
          <mxGeometry relative="1" as="geometry" />
        </mxCell>
        <mxCell id="jgecQRoI-UJ5eHJaAyyf-74" style="edgeStyle=orthogonalEdgeStyle;shape=connector;rounded=0;orthogonalLoop=1;jettySize=auto;html=1;exitX=1;exitY=0.5;exitDx=0;exitDy=0;entryX=0;entryY=0.5;entryDx=0;entryDy=0;labelBackgroundColor=default;strokeColor=default;strokeWidth=3;fontFamily=Helvetica;fontSize=12;fontColor=default;endArrow=none;endFill=0;" parent="1" source="jgecQRoI-UJ5eHJaAyyf-23" target="jgecQRoI-UJ5eHJaAyyf-69" edge="1">
          <mxGeometry relative="1" as="geometry">
            <Array as="points">
              <mxPoint x="690" y="-210" />
              <mxPoint x="690" y="-332" />
            </Array>
          </mxGeometry>
        </mxCell>
        <mxCell id="jgecQRoI-UJ5eHJaAyyf-75" style="edgeStyle=orthogonalEdgeStyle;shape=connector;rounded=0;orthogonalLoop=1;jettySize=auto;html=1;exitX=1;exitY=0.5;exitDx=0;exitDy=0;entryX=0;entryY=0.25;entryDx=0;entryDy=0;labelBackgroundColor=default;strokeColor=default;strokeWidth=3;fontFamily=Helvetica;fontSize=12;fontColor=default;endArrow=none;endFill=0;" parent="1" source="jgecQRoI-UJ5eHJaAyyf-63" target="jgecQRoI-UJ5eHJaAyyf-69" edge="1">
          <mxGeometry relative="1" as="geometry">
            <Array as="points">
              <mxPoint x="670" y="-380" />
              <mxPoint x="670" y="-352" />
            </Array>
          </mxGeometry>
        </mxCell>
        <mxCell id="jgecQRoI-UJ5eHJaAyyf-76" style="edgeStyle=orthogonalEdgeStyle;shape=connector;rounded=0;orthogonalLoop=1;jettySize=auto;html=1;exitX=1;exitY=0.5;exitDx=0;exitDy=0;entryX=0;entryY=0.8;entryDx=0;entryDy=0;labelBackgroundColor=default;strokeColor=default;strokeWidth=3;fontFamily=Helvetica;fontSize=12;fontColor=default;endArrow=none;endFill=0;" parent="1" source="jgecQRoI-UJ5eHJaAyyf-63" target="jgecQRoI-UJ5eHJaAyyf-53" edge="1">
          <mxGeometry relative="1" as="geometry">
            <Array as="points">
              <mxPoint x="670" y="-380" />
              <mxPoint x="670" y="-250" />
              <mxPoint x="740" y="-250" />
              <mxPoint x="740" y="-150" />
            </Array>
          </mxGeometry>
        </mxCell>
        <mxCell id="jgecQRoI-UJ5eHJaAyyf-77" style="edgeStyle=orthogonalEdgeStyle;shape=connector;rounded=0;orthogonalLoop=1;jettySize=auto;html=1;exitX=1;exitY=0.5;exitDx=0;exitDy=0;labelBackgroundColor=default;strokeColor=default;strokeWidth=3;fontFamily=Helvetica;fontSize=12;fontColor=default;endArrow=none;endFill=0;entryX=0;entryY=0.5;entryDx=0;entryDy=0;" parent="1" source="jgecQRoI-UJ5eHJaAyyf-69" target="jgecQRoI-UJ5eHJaAyyf-30" edge="1">
          <mxGeometry relative="1" as="geometry">
            <mxPoint x="70" y="-480" as="targetPoint" />
            <Array as="points">
              <mxPoint x="781" y="-333" />
              <mxPoint x="781" y="-420" />
              <mxPoint x="60" y="-420" />
              <mxPoint x="60" y="-254" />
            </Array>
          </mxGeometry>
        </mxCell>
        <mxCell id="jgecQRoI-UJ5eHJaAyyf-82" value="&lt;b&gt;PC&lt;/b&gt;" style="text;html=1;strokeColor=none;fillColor=none;align=center;verticalAlign=middle;whiteSpace=wrap;rounded=0;points=[];fontSize=16;" parent="1" vertex="1">
          <mxGeometry x="88.53999999999996" y="-304" width="20.46" height="14" as="geometry" />
        </mxCell>
        <mxCell id="NUnJx02UUNhQXxhkYbMm-2" style="edgeStyle=orthogonalEdgeStyle;shape=connector;rounded=0;orthogonalLoop=1;jettySize=auto;html=1;exitX=0.5;exitY=1;exitDx=0;exitDy=0;labelBackgroundColor=default;strokeColor=default;strokeWidth=3;fontFamily=Helvetica;fontSize=12;fontColor=default;endArrow=none;endFill=0;" edge="1" parent="1" source="jgecQRoI-UJ5eHJaAyyf-83">
          <mxGeometry relative="1" as="geometry">
            <mxPoint x="210" y="-210" as="targetPoint" />
          </mxGeometry>
        </mxCell>
        <UserObject label="" tooltip="Mux 2" id="jgecQRoI-UJ5eHJaAyyf-83">
          <mxCell style="shape=stencil(tZRtb4MgEMc/DS+7KGTx9WbX9Gsg0kqKYIDVdp9+PC4+1G52myHGuz/+7oDjACp1gzsKYNYAtAUQFpl9WbMPJoom1h0lJvjOWDFccRoUbZQ80Z7VJhKYaKhixqnoDWQvdo4bqCRSCAthUuiRMtAtDDNh/80uARbDX6P19BzszkZoqaEq+PPgBXD3Y3AiXUdxfs/N/yvhbJJxvgaMSutZ2n9UVpicjkq+i/pmOh12ZzsTktzKM108sXsLTQDOxACA/ppQPIB4hEC41HRlnJtVuAaQT6oCrkesScIX0kI9oPLAOA/94A7g2wmOYr9khwkzMSlQvCa72IYEieRSfanBStoS2tDL8K6OF46i6SZtsCBNwresrlO7O0hhNpp90PF+e3dP2bGJTbKSvI6SW05IE6Kdf6a9cTD2N3fc5z270LNr672hoXvHJw==);whiteSpace=wrap;html=1;fillStyle=solid;strokeWidth=3;labelBackgroundColor=none;fillColor=default;gradientColor=none;gradientDirection=east;fontFamily=Helvetica;fontSize=11;fontColor=default;" parent="1" vertex="1">
            <mxGeometry x="200.0000000000001" y="-284" width="20" height="60" as="geometry" />
          </mxCell>
        </UserObject>
        <mxCell id="K0L0Q3rgMGzgViolmx8t-1" value="" style="group;strokeWidth=3;" parent="1" vertex="1" connectable="0">
          <mxGeometry x="341" y="98" width="20" height="60" as="geometry" />
        </mxCell>
        <UserObject label="" tooltip="Mux 2" id="K0L0Q3rgMGzgViolmx8t-2">
          <mxCell style="shape=stencil(rZRtb4MgEMc/DS/bKMT4erNr+jUQr5WUggFWu336ocDiQ3VrN0OMd3/8cXfAIVKYmjaAcFIjskMY54l7ObP1JgkmNQ0w631XqjktBXjFWK3O0PLKBgKXNWhuO5W8oeTFzekGKZiS0kG4kmakDHQHo1y6f5Obh4XlP4K1xZl3NG6JC1jQXki9F+H90+T838jbbIJO8eOQdMJ4KDpSOM9SuUlRUnY+afUuq7vhNLTbypkQ5Yu6wmIZ1xKNAMHlAEDGhDT7MyJ7AjEm5L/KgwllYGVbnX+hlKQ4ciH8zVkB/Diho7gv1VDGbYgd5a/Rznc+DaaE0t+qt6K2hLZwG57G8ZEmwewmbahkdcRfeFXFxnBU0m4M/4SAwAN3C/xUh3ZSKlEFqUvHh4nJvn+mXWQwDncr3sc9uwuzE997fevrHV8=);whiteSpace=wrap;html=1;fillStyle=solid;strokeWidth=3;labelBackgroundColor=none;fillColor=default;gradientColor=none;gradientDirection=east;" parent="K0L0Q3rgMGzgViolmx8t-1" vertex="1">
            <mxGeometry width="20" height="60" as="geometry" />
          </mxCell>
        </UserObject>
        <mxCell id="K0L0Q3rgMGzgViolmx8t-3" value="&lt;b style=&quot;font-size: 16px;&quot;&gt;0&lt;/b&gt;" style="text;html=1;strokeColor=none;fillColor=none;align=center;verticalAlign=middle;whiteSpace=wrap;rounded=0;points=[];fontSize=16;" parent="K0L0Q3rgMGzgViolmx8t-1" vertex="1">
          <mxGeometry x="5.333333333333333" y="13.714285714285712" width="6.666666666666666" height="8.571428571428571" as="geometry" />
        </mxCell>
        <mxCell id="K0L0Q3rgMGzgViolmx8t-4" value="&lt;b style=&quot;font-size: 16px;&quot;&gt;1&lt;/b&gt;" style="text;html=1;strokeColor=none;fillColor=none;align=center;verticalAlign=middle;whiteSpace=wrap;rounded=0;points=[];fontSize=16;" parent="K0L0Q3rgMGzgViolmx8t-1" vertex="1">
          <mxGeometry x="5.333333333333333" y="36" width="6.666666666666666" height="8.571428571428571" as="geometry" />
        </mxCell>
        <mxCell id="K0L0Q3rgMGzgViolmx8t-6" style="edgeStyle=orthogonalEdgeStyle;shape=connector;rounded=0;orthogonalLoop=1;jettySize=auto;html=1;exitX=1;exitY=0.5;exitDx=0;exitDy=0;entryX=0;entryY=0.25;entryDx=0;entryDy=0;labelBackgroundColor=default;strokeColor=default;strokeWidth=3;fontFamily=Helvetica;fontSize=11;fontColor=default;endArrow=none;endFill=0;" parent="1" source="K0L0Q3rgMGzgViolmx8t-2" target="01i2UeO-KrYldI_20bgV-112" edge="1">
          <mxGeometry relative="1" as="geometry" />
        </mxCell>
        <mxCell id="CIBt4MdVUbTCK2KNhC6v-3" style="edgeStyle=orthogonalEdgeStyle;shape=connector;rounded=0;orthogonalLoop=1;jettySize=auto;html=1;exitX=0.5;exitY=0;exitDx=0;exitDy=0;labelBackgroundColor=default;strokeColor=default;strokeWidth=3;fontFamily=Helvetica;fontSize=12;fontColor=default;endArrow=none;endFill=0;" edge="1" parent="1" source="K0L0Q3rgMGzgViolmx8t-7">
          <mxGeometry relative="1" as="geometry">
            <mxPoint x="530" y="90" as="targetPoint" />
            <Array as="points">
              <mxPoint x="690" y="10" />
              <mxPoint x="529" y="10" />
            </Array>
          </mxGeometry>
        </mxCell>
        <mxCell id="K0L0Q3rgMGzgViolmx8t-7" value="" style="shape=stencil(tZNrDoIwEIRP07+mtHgAU/UeFVZpxJaU+rq9CwsKIsZnQprsDPs1nW2ZVGWmC2CCZ0zOmRAxxwXLY7/UZQFJIO2gvdGrHMgpg3dbOJo0NARjM/AmVK5cMD7Df6pPqsRZixDjbNlzOj7CtLHYy08E45MpbXNuaqoK3GEHATypEalMLF8H97DRr7DRf7B3KbzFlQqVseylWulku/Fub9Nh16i3dh4eGFfb5DndiyfnLHR1YwZGa+/cAW4B3M2LP4uwJeTGdgh9QPwBIf4e8c4x6gmMhITPdizeum0wn1qlp14LFw==);whiteSpace=wrap;html=1;strokeWidth=3;rotation=-180;" parent="1" vertex="1">
          <mxGeometry x="680" y="-131" width="20" height="20" as="geometry" />
        </mxCell>
        <mxCell id="K0L0Q3rgMGzgViolmx8t-10" style="edgeStyle=orthogonalEdgeStyle;shape=connector;rounded=0;orthogonalLoop=1;jettySize=auto;html=1;exitX=1;exitY=0.5;exitDx=0;exitDy=0;entryX=0.5;entryY=1;entryDx=0;entryDy=0;labelBackgroundColor=default;strokeColor=default;strokeWidth=3;fontFamily=Helvetica;fontSize=11;fontColor=default;endArrow=none;endFill=0;" parent="1" source="jgecQRoI-UJ5eHJaAyyf-23" target="K0L0Q3rgMGzgViolmx8t-7" edge="1">
          <mxGeometry relative="1" as="geometry">
            <Array as="points">
              <mxPoint x="690" y="-210" />
              <mxPoint x="690" y="-131" />
            </Array>
          </mxGeometry>
        </mxCell>
        <mxCell id="K0L0Q3rgMGzgViolmx8t-13" value="&lt;b&gt;Memory&lt;/b&gt;" style="text;html=1;strokeColor=none;fillColor=none;align=center;verticalAlign=middle;whiteSpace=wrap;rounded=0;points=[];fontSize=16;" parent="1" vertex="1">
          <mxGeometry x="409.54" y="100" width="70.46" height="14" as="geometry" />
        </mxCell>
      </root>
    </mxGraphModel>
  </diagram>
  <diagram name="BEAN-1 Working" id="uoyA0Rb9wpFZM4tgpVIk">
    <mxGraphModel dx="1478" dy="1952" grid="1" gridSize="10" guides="1" tooltips="1" connect="1" arrows="1" fold="1" page="1" pageScale="1" pageWidth="850" pageHeight="1100" math="0" shadow="0">
      <root>
        <mxCell id="R5HYlvq3iJc6gxoxcBGq-0" />
        <mxCell id="R5HYlvq3iJc6gxoxcBGq-1" parent="R5HYlvq3iJc6gxoxcBGq-0" />
        <mxCell id="R5HYlvq3iJc6gxoxcBGq-2" style="edgeStyle=orthogonalEdgeStyle;shape=connector;rounded=0;orthogonalLoop=1;jettySize=auto;html=1;exitX=0.5;exitY=0;exitDx=0;exitDy=0;entryX=0;entryY=0.5;entryDx=0;entryDy=0;labelBackgroundColor=default;strokeColor=default;strokeWidth=3;fontFamily=Helvetica;fontSize=11;fontColor=default;endArrow=none;endFill=0;" edge="1" parent="R5HYlvq3iJc6gxoxcBGq-1" source="R5HYlvq3iJc6gxoxcBGq-3" target="R5HYlvq3iJc6gxoxcBGq-78">
          <mxGeometry relative="1" as="geometry">
            <Array as="points">
              <mxPoint x="529" y="10" />
              <mxPoint x="180" y="10" />
              <mxPoint x="180" y="-254" />
            </Array>
          </mxGeometry>
        </mxCell>
        <mxCell id="SbKfSG5ickLT-9Ht9uUm-5" style="edgeStyle=orthogonalEdgeStyle;shape=connector;rounded=0;orthogonalLoop=1;jettySize=auto;html=1;exitX=0.5;exitY=0;exitDx=0;exitDy=0;entryX=0.5;entryY=1;entryDx=0;entryDy=0;labelBackgroundColor=default;strokeColor=default;strokeWidth=3;fontFamily=Helvetica;fontSize=12;fontColor=default;endArrow=none;endFill=0;" edge="1" parent="R5HYlvq3iJc6gxoxcBGq-1" source="R5HYlvq3iJc6gxoxcBGq-3" target="SbKfSG5ickLT-9Ht9uUm-4">
          <mxGeometry relative="1" as="geometry" />
        </mxCell>
        <mxCell id="R5HYlvq3iJc6gxoxcBGq-3" value="" style="whiteSpace=wrap;html=1;strokeWidth=3;" vertex="1" parent="R5HYlvq3iJc6gxoxcBGq-1">
          <mxGeometry x="404" y="90" width="250" height="150" as="geometry" />
        </mxCell>
        <mxCell id="R5HYlvq3iJc6gxoxcBGq-4" value="" style="group" vertex="1" connectable="0" parent="R5HYlvq3iJc6gxoxcBGq-1">
          <mxGeometry x="331" y="-77" width="99" height="40" as="geometry" />
        </mxCell>
        <mxCell id="R5HYlvq3iJc6gxoxcBGq-5" style="edgeStyle=orthogonalEdgeStyle;shape=connector;rounded=0;orthogonalLoop=1;jettySize=auto;html=1;exitX=0.5;exitY=0.25;exitDx=0;exitDy=0;exitPerimeter=0;labelBackgroundColor=default;strokeColor=default;strokeWidth=3;fontFamily=Helvetica;fontSize=12;fontColor=default;endArrow=none;endFill=0;" edge="1" parent="R5HYlvq3iJc6gxoxcBGq-4" source="R5HYlvq3iJc6gxoxcBGq-7">
          <mxGeometry relative="1" as="geometry">
            <mxPoint x="49.5" y="-3" as="targetPoint" />
          </mxGeometry>
        </mxCell>
        <mxCell id="R5HYlvq3iJc6gxoxcBGq-6" value="&lt;font color=&quot;#ff33ff&quot; style=&quot;font-size: 12px;&quot;&gt;imm_SEL&lt;/font&gt;" style="edgeLabel;html=1;align=center;verticalAlign=middle;resizable=0;points=[];fontSize=14;fontFamily=Helvetica;fontColor=default;fontStyle=0" vertex="1" connectable="0" parent="R5HYlvq3iJc6gxoxcBGq-5">
          <mxGeometry x="0.4457" y="1" relative="1" as="geometry">
            <mxPoint x="-3" y="-11" as="offset" />
          </mxGeometry>
        </mxCell>
        <mxCell id="R5HYlvq3iJc6gxoxcBGq-7" value="" style="shape=stencil(pZPdjsIgEIWfhluDYNPrFfU9ENktEYEAq+vb79QB40+rq5s0Tc859GOYTgkXqZNBE0Y7wheEsRmFG8gDyiktWqagVUZzL6ORa6sxSTn6rT6YTS4I4zodTe5TviT0A9b0FxfKOwcQ4126Si5ygEnj4F36g7Cy/bGoSdugEWCLnc46ljrRJWz1Z/KkuUGz5nXI9IbxUnVcgDPWFC7WUm2/ov92m8FyguwbfhfUeOf3eqyNVQ6ftBKscReE8yQcr4j/QczeYLxDUNYn/eDDgj/STC4+jbU44Q8ATxf0FHjyQSqTS+2knVfdLvAYylsfzymqmg0Oz92InFz8pU/GLw==);whiteSpace=wrap;html=1;fillStyle=solid;strokeWidth=3;labelBackgroundColor=none;rotation=0;" vertex="1" parent="R5HYlvq3iJc6gxoxcBGq-4">
          <mxGeometry width="99" height="40" as="geometry" />
        </mxCell>
        <mxCell id="R5HYlvq3iJc6gxoxcBGq-8" value="&lt;b&gt;Extnd&lt;/b&gt;" style="text;html=1;strokeColor=none;fillColor=none;align=center;verticalAlign=middle;whiteSpace=wrap;rounded=0;points=[];fontSize=16;" vertex="1" parent="R5HYlvq3iJc6gxoxcBGq-4">
          <mxGeometry x="28.076400000000014" y="20" width="49.5" height="14" as="geometry" />
        </mxCell>
        <mxCell id="R5HYlvq3iJc6gxoxcBGq-9" style="edgeStyle=orthogonalEdgeStyle;shape=connector;rounded=0;orthogonalLoop=1;jettySize=auto;html=1;exitX=1;exitY=0.5;exitDx=0;exitDy=0;labelBackgroundColor=default;strokeColor=default;strokeWidth=3;fontFamily=Helvetica;fontSize=12;fontColor=default;endArrow=none;endFill=0;entryX=0;entryY=0.75;entryDx=0;entryDy=0;" edge="1" parent="R5HYlvq3iJc6gxoxcBGq-1" source="R5HYlvq3iJc6gxoxcBGq-13" target="R5HYlvq3iJc6gxoxcBGq-24">
          <mxGeometry relative="1" as="geometry">
            <mxPoint x="644" y="-129.66666666666652" as="targetPoint" />
            <mxPoint x="562" y="-133" as="sourcePoint" />
          </mxGeometry>
        </mxCell>
        <mxCell id="R5HYlvq3iJc6gxoxcBGq-10" style="edgeStyle=orthogonalEdgeStyle;shape=connector;rounded=0;orthogonalLoop=1;jettySize=auto;html=1;exitX=0;exitY=0.25;exitDx=0;exitDy=0;labelBackgroundColor=default;strokeColor=default;strokeWidth=3;fontFamily=Helvetica;fontSize=12;fontColor=default;endArrow=none;endFill=0;entryX=1;entryY=0.5;entryDx=0;entryDy=0;" edge="1" parent="R5HYlvq3iJc6gxoxcBGq-1" source="R5HYlvq3iJc6gxoxcBGq-24" target="R5HYlvq3iJc6gxoxcBGq-18">
          <mxGeometry relative="1" as="geometry">
            <mxPoint x="562" y="-238" as="targetPoint" />
          </mxGeometry>
        </mxCell>
        <mxCell id="R5HYlvq3iJc6gxoxcBGq-11" value="" style="group" vertex="1" connectable="0" parent="R5HYlvq3iJc6gxoxcBGq-1">
          <mxGeometry x="525.0000000000001" y="-190" width="20" height="60" as="geometry" />
        </mxCell>
        <mxCell id="R5HYlvq3iJc6gxoxcBGq-12" style="edgeStyle=orthogonalEdgeStyle;shape=connector;rounded=0;orthogonalLoop=1;jettySize=auto;html=1;exitX=0.5;exitY=0.12;exitDx=0;exitDy=0;exitPerimeter=0;labelBackgroundColor=default;strokeColor=default;strokeWidth=2;fontFamily=Helvetica;fontSize=12;fontColor=default;endArrow=none;endFill=0;" edge="1" parent="R5HYlvq3iJc6gxoxcBGq-11" source="R5HYlvq3iJc6gxoxcBGq-13">
          <mxGeometry relative="1" as="geometry">
            <mxPoint x="10.137931034482676" y="-10" as="targetPoint" />
          </mxGeometry>
        </mxCell>
        <UserObject label="" tooltip="Mux 2" id="R5HYlvq3iJc6gxoxcBGq-13">
          <mxCell style="shape=stencil(rZRtb4MgEMc/DS/bKMT4erNr+jUQr5WUggFWu336ocDiQ3VrN0OMd3/8cXfAIVKYmjaAcFIjskMY54l7ObP1JgkmNQ0w631XqjktBXjFWK3O0PLKBgKXNWhuO5W8oeTFzekGKZiS0kG4kmakDHQHo1y6f5Obh4XlP4K1xZl3NG6JC1jQXki9F+H90+T838jbbIJO8eOQdMJ4KDpSOM9SuUlRUnY+afUuq7vhNLTbypkQ5Yu6wmIZ1xKNAMHlAEDGhDT7MyJ7AjEm5L/KgwllYGVbnX+hlKQ4ciH8zVkB/Diho7gv1VDGbYgd5a/Rznc+DaaE0t+qt6K2hLZwG57G8ZEmwewmbahkdcRfeFXFxnBU0m4M/4SAwAN3C/xUh3ZSKlEFqUvHh4nJvn+mXWQwDncr3sc9uwuzE997fevrHV8=);whiteSpace=wrap;html=1;fillStyle=solid;strokeWidth=3;labelBackgroundColor=none;fillColor=default;gradientColor=none;gradientDirection=east;" vertex="1" parent="R5HYlvq3iJc6gxoxcBGq-11">
            <mxGeometry width="20" height="60" as="geometry" />
          </mxCell>
        </UserObject>
        <mxCell id="R5HYlvq3iJc6gxoxcBGq-14" value="&lt;b style=&quot;font-size: 16px;&quot;&gt;0&lt;/b&gt;" style="text;html=1;strokeColor=none;fillColor=none;align=center;verticalAlign=middle;whiteSpace=wrap;rounded=0;points=[];fontSize=16;" vertex="1" parent="R5HYlvq3iJc6gxoxcBGq-11">
          <mxGeometry x="5.333333333333333" y="13.714285714285712" width="6.666666666666666" height="8.571428571428571" as="geometry" />
        </mxCell>
        <mxCell id="R5HYlvq3iJc6gxoxcBGq-15" value="&lt;b style=&quot;font-size: 16px;&quot;&gt;1&lt;/b&gt;" style="text;html=1;strokeColor=none;fillColor=none;align=center;verticalAlign=middle;whiteSpace=wrap;rounded=0;points=[];fontSize=16;" vertex="1" parent="R5HYlvq3iJc6gxoxcBGq-11">
          <mxGeometry x="5.333333333333333" y="36" width="6.666666666666666" height="8.571428571428571" as="geometry" />
        </mxCell>
        <mxCell id="R5HYlvq3iJc6gxoxcBGq-16" value="" style="group" vertex="1" connectable="0" parent="R5HYlvq3iJc6gxoxcBGq-1">
          <mxGeometry x="525.0000000000001" y="-268" width="20" height="60" as="geometry" />
        </mxCell>
        <mxCell id="R5HYlvq3iJc6gxoxcBGq-17" style="edgeStyle=orthogonalEdgeStyle;shape=connector;rounded=0;orthogonalLoop=1;jettySize=auto;html=1;exitX=0.5;exitY=0.12;exitDx=0;exitDy=0;exitPerimeter=0;labelBackgroundColor=default;strokeColor=default;strokeWidth=2;fontFamily=Helvetica;fontSize=12;fontColor=default;endArrow=none;endFill=0;" edge="1" parent="R5HYlvq3iJc6gxoxcBGq-16" source="R5HYlvq3iJc6gxoxcBGq-18">
          <mxGeometry relative="1" as="geometry">
            <mxPoint x="9.999999999999886" y="-12" as="targetPoint" />
          </mxGeometry>
        </mxCell>
        <UserObject label="" tooltip="Mux 2" id="R5HYlvq3iJc6gxoxcBGq-18">
          <mxCell style="shape=stencil(rZRtb4MgEMc/DS/bKMT4erNr+jUQr5WUggFWu336ocDiQ3VrN0OMd3/8cXfAIVKYmjaAcFIjskMY54l7ObP1JgkmNQ0w631XqjktBXjFWK3O0PLKBgKXNWhuO5W8oeTFzekGKZiS0kG4kmakDHQHo1y6f5Obh4XlP4K1xZl3NG6JC1jQXki9F+H90+T838jbbIJO8eOQdMJ4KDpSOM9SuUlRUnY+afUuq7vhNLTbypkQ5Yu6wmIZ1xKNAMHlAEDGhDT7MyJ7AjEm5L/KgwllYGVbnX+hlKQ4ciH8zVkB/Diho7gv1VDGbYgd5a/Rznc+DaaE0t+qt6K2hLZwG57G8ZEmwewmbahkdcRfeFXFxnBU0m4M/4SAwAN3C/xUh3ZSKlEFqUvHh4nJvn+mXWQwDncr3sc9uwuzE997fevrHV8=);whiteSpace=wrap;html=1;fillStyle=solid;strokeWidth=3;labelBackgroundColor=none;fillColor=default;gradientColor=none;gradientDirection=east;" vertex="1" parent="R5HYlvq3iJc6gxoxcBGq-16">
            <mxGeometry width="20" height="60" as="geometry" />
          </mxCell>
        </UserObject>
        <mxCell id="R5HYlvq3iJc6gxoxcBGq-19" value="&lt;b style=&quot;font-size: 16px;&quot;&gt;0&lt;/b&gt;" style="text;html=1;strokeColor=none;fillColor=none;align=center;verticalAlign=middle;whiteSpace=wrap;rounded=0;points=[];fontSize=16;" vertex="1" parent="R5HYlvq3iJc6gxoxcBGq-16">
          <mxGeometry x="5.333333333333333" y="13.714285714285712" width="6.666666666666666" height="8.571428571428571" as="geometry" />
        </mxCell>
        <mxCell id="R5HYlvq3iJc6gxoxcBGq-20" value="&lt;b style=&quot;font-size: 16px;&quot;&gt;1&lt;/b&gt;" style="text;html=1;strokeColor=none;fillColor=none;align=center;verticalAlign=middle;whiteSpace=wrap;rounded=0;points=[];fontSize=16;" vertex="1" parent="R5HYlvq3iJc6gxoxcBGq-16">
          <mxGeometry x="5.333333333333333" y="36" width="6.666666666666666" height="8.571428571428571" as="geometry" />
        </mxCell>
        <mxCell id="R5HYlvq3iJc6gxoxcBGq-21" value="" style="group" vertex="1" connectable="0" parent="R5HYlvq3iJc6gxoxcBGq-1">
          <mxGeometry x="604" y="-265" width="50" height="110" as="geometry" />
        </mxCell>
        <mxCell id="R5HYlvq3iJc6gxoxcBGq-22" style="edgeStyle=orthogonalEdgeStyle;shape=connector;rounded=0;orthogonalLoop=1;jettySize=auto;html=1;exitX=0.5;exitY=0.09;exitDx=0;exitDy=0;exitPerimeter=0;labelBackgroundColor=default;strokeColor=default;strokeWidth=3;fontFamily=Helvetica;fontSize=12;fontColor=default;endArrow=none;endFill=0;" edge="1" parent="R5HYlvq3iJc6gxoxcBGq-21" source="R5HYlvq3iJc6gxoxcBGq-24">
          <mxGeometry relative="1" as="geometry">
            <mxPoint x="25.28571428571422" y="-5" as="targetPoint" />
          </mxGeometry>
        </mxCell>
        <mxCell id="R5HYlvq3iJc6gxoxcBGq-23" value="&lt;font color=&quot;#ff00ff&quot;&gt;ALU_SEL&lt;/font&gt;" style="edgeLabel;html=1;align=center;verticalAlign=middle;resizable=0;points=[];fontSize=12;fontFamily=Helvetica;fontColor=default;" vertex="1" connectable="0" parent="R5HYlvq3iJc6gxoxcBGq-22">
          <mxGeometry x="0.954" y="1" relative="1" as="geometry">
            <mxPoint y="-9" as="offset" />
          </mxGeometry>
        </mxCell>
        <mxCell id="R5HYlvq3iJc6gxoxcBGq-24" value="" style="shape=stencil(rZThbsIgFIWfhr+GQljjzw2390BkKxGBANPt7Ue91Nhqu9k1aZrec+jHIVxAlMdGeIUIbhDdIEKqCud3rk9Qs1KK6JVMoB1F0GJrFDgxBbdXJ71LBaFto4JOrUtfEX7OY9qHcumszRDtbOw5V36GCW3zv/gLYGX671KtCAPB5ykOKqlQYoOKyNtscr0YecUGaLx+HFINGIulG4IpfoRMeVbGNpLyrZD7j+A+7e5uHi/aJrkxOvvgjmp0g6ZW2gGMtlcA1icsgFjPQPQJl/M1H/E0g1D1W5Kx/4ZgfwohjYtqoj+zPtISlL9rY+BumQD8OqCl5C/nhdSpZEf1S1fXG1iGdMaFiwtV5909AjeNflbhMj0LPw==);whiteSpace=wrap;html=1;fillStyle=solid;strokeWidth=3;labelBackgroundColor=none;" vertex="1" parent="R5HYlvq3iJc6gxoxcBGq-21">
          <mxGeometry width="50" height="110" as="geometry" />
        </mxCell>
        <mxCell id="R5HYlvq3iJc6gxoxcBGq-25" value="&lt;b style=&quot;font-size: 16px;&quot;&gt;ALU&lt;/b&gt;" style="text;html=1;strokeColor=none;fillColor=none;align=center;verticalAlign=middle;whiteSpace=wrap;rounded=0;points=[];fontSize=16;" vertex="1" parent="R5HYlvq3iJc6gxoxcBGq-21">
          <mxGeometry x="17" y="25" width="10" height="10" as="geometry" />
        </mxCell>
        <mxCell id="R5HYlvq3iJc6gxoxcBGq-26" style="edgeStyle=orthogonalEdgeStyle;shape=connector;rounded=0;orthogonalLoop=1;jettySize=auto;html=1;exitX=1;exitY=0.23;exitDx=0;exitDy=0;exitPerimeter=0;entryX=0;entryY=0.25;entryDx=0;entryDy=0;labelBackgroundColor=default;strokeColor=default;strokeWidth=3;fontFamily=Helvetica;fontSize=12;fontColor=default;endArrow=none;endFill=0;" edge="1" parent="R5HYlvq3iJc6gxoxcBGq-1" source="R5HYlvq3iJc6gxoxcBGq-34" target="R5HYlvq3iJc6gxoxcBGq-18">
          <mxGeometry relative="1" as="geometry">
            <mxPoint x="440" y="-253.36000000000013" as="sourcePoint" />
          </mxGeometry>
        </mxCell>
        <mxCell id="R5HYlvq3iJc6gxoxcBGq-27" style="edgeStyle=orthogonalEdgeStyle;shape=connector;rounded=0;orthogonalLoop=1;jettySize=auto;html=1;exitX=1;exitY=0.5;exitDx=0;exitDy=0;entryX=0;entryY=0.75;entryDx=0;entryDy=0;labelBackgroundColor=default;strokeColor=default;strokeWidth=3;fontFamily=Helvetica;fontSize=12;fontColor=default;endArrow=none;endFill=0;" edge="1" parent="R5HYlvq3iJc6gxoxcBGq-1" source="R5HYlvq3iJc6gxoxcBGq-32" target="R5HYlvq3iJc6gxoxcBGq-18">
          <mxGeometry relative="1" as="geometry">
            <Array as="points">
              <mxPoint x="140" y="-254" />
              <mxPoint x="140" y="-330" />
              <mxPoint x="450" y="-330" />
              <mxPoint x="450" y="-223" />
            </Array>
          </mxGeometry>
        </mxCell>
        <mxCell id="R5HYlvq3iJc6gxoxcBGq-28" style="edgeStyle=orthogonalEdgeStyle;shape=connector;rounded=0;orthogonalLoop=1;jettySize=auto;html=1;exitX=1;exitY=0.5;exitDx=0;exitDy=0;entryX=0;entryY=0.25;entryDx=0;entryDy=0;labelBackgroundColor=default;strokeColor=default;strokeWidth=3;fontFamily=Helvetica;fontSize=12;fontColor=default;endArrow=none;endFill=0;" edge="1" parent="R5HYlvq3iJc6gxoxcBGq-1" source="R5HYlvq3iJc6gxoxcBGq-32" target="R5HYlvq3iJc6gxoxcBGq-37">
          <mxGeometry relative="1" as="geometry">
            <Array as="points">
              <mxPoint x="140" y="-254" />
              <mxPoint x="140" y="-330" />
              <mxPoint x="559" y="-330" />
            </Array>
          </mxGeometry>
        </mxCell>
        <mxCell id="R5HYlvq3iJc6gxoxcBGq-29" style="edgeStyle=orthogonalEdgeStyle;shape=connector;rounded=0;orthogonalLoop=1;jettySize=auto;html=1;exitX=1;exitY=0.5;exitDx=0;exitDy=0;entryX=0;entryY=0.75;entryDx=0;entryDy=0;labelBackgroundColor=default;strokeColor=default;strokeWidth=3;fontFamily=Helvetica;fontSize=12;fontColor=default;endArrow=none;endFill=0;" edge="1" parent="R5HYlvq3iJc6gxoxcBGq-1" source="R5HYlvq3iJc6gxoxcBGq-32" target="R5HYlvq3iJc6gxoxcBGq-61">
          <mxGeometry relative="1" as="geometry">
            <Array as="points">
              <mxPoint x="140" y="-254" />
              <mxPoint x="140" y="-365" />
            </Array>
          </mxGeometry>
        </mxCell>
        <mxCell id="R5HYlvq3iJc6gxoxcBGq-30" style="edgeStyle=orthogonalEdgeStyle;shape=connector;rounded=0;orthogonalLoop=1;jettySize=auto;html=1;exitX=1;exitY=0.5;exitDx=0;exitDy=0;entryX=0;entryY=0.75;entryDx=0;entryDy=0;labelBackgroundColor=default;strokeColor=default;strokeWidth=3;fontFamily=Helvetica;fontSize=11;fontColor=default;endArrow=none;endFill=0;" edge="1" parent="R5HYlvq3iJc6gxoxcBGq-1" source="R5HYlvq3iJc6gxoxcBGq-32" target="R5HYlvq3iJc6gxoxcBGq-80">
          <mxGeometry relative="1" as="geometry">
            <Array as="points">
              <mxPoint x="140" y="-254" />
              <mxPoint x="140" y="143" />
            </Array>
          </mxGeometry>
        </mxCell>
        <mxCell id="R5HYlvq3iJc6gxoxcBGq-31" style="edgeStyle=orthogonalEdgeStyle;shape=connector;rounded=0;orthogonalLoop=1;jettySize=auto;html=1;exitX=0.5;exitY=1;exitDx=0;exitDy=0;labelBackgroundColor=default;strokeColor=default;strokeWidth=3;fontFamily=Helvetica;fontSize=12;fontColor=default;endArrow=none;endFill=0;" edge="1" parent="R5HYlvq3iJc6gxoxcBGq-1" source="R5HYlvq3iJc6gxoxcBGq-32">
          <mxGeometry relative="1" as="geometry">
            <mxPoint x="100.28571428571422" y="-210" as="targetPoint" />
          </mxGeometry>
        </mxCell>
        <UserObject label="" tooltip="Mux 2" id="R5HYlvq3iJc6gxoxcBGq-32">
          <mxCell style="shape=stencil(tZRtb4MgEMc/DS+7KGTx9WbX9Gsg0kqKYIDVdp9+PC4+1G52myHGuz/+7oDjACp1gzsKYNYAtAUQFpl9WbMPJoom1h0lJvjOWDFccRoUbZQ80Z7VJhKYaKhixqnoDWQvdo4bqCRSCAthUuiRMtAtDDNh/80uARbDX6P19BzszkZoqaEq+PPgBXD3Y3AiXUdxfs/N/yvhbJJxvgaMSutZ2n9UVpicjkq+i/pmOh12ZzsTktzKM108sXsLTQDOxACA/ppQPIB4hEC41HRlnJtVuAaQT6oCrkesScIX0kI9oPLAOA/94A7g2wmOYr9khwkzMSlQvCa72IYEieRSfanBStoS2tDL8K6OF46i6SZtsCBNwresrlO7O0hhNpp90PF+e3dP2bGJTbKSvI6SW05IE6Kdf6a9cTD2N3fc5z270LNr672hoXvHJw==);whiteSpace=wrap;html=1;fillStyle=solid;strokeWidth=3;labelBackgroundColor=none;fillColor=default;gradientColor=none;gradientDirection=east;" vertex="1" parent="R5HYlvq3iJc6gxoxcBGq-1">
            <mxGeometry x="90.00000000000011" y="-284" width="20" height="60" as="geometry" />
          </mxCell>
        </UserObject>
        <mxCell id="R5HYlvq3iJc6gxoxcBGq-33" value="" style="group" vertex="1" connectable="0" parent="R5HYlvq3iJc6gxoxcBGq-1">
          <mxGeometry x="320" y="-292" width="110" height="168" as="geometry" />
        </mxCell>
        <UserObject label="" tooltip="Mux 2" id="R5HYlvq3iJc6gxoxcBGq-34">
          <mxCell style="shape=stencil(rZThboMgEMefho9tLBfH582u2Wsg0kqKYIDVbk8/EFx01q7tZojx7o8/7i7cIShsTVuOcFYj2CKMSeZf3uyiCcmktuXMRd+JGkFLyaNindFH3onKJYJQNTfCBRVeUfbs94QFBdNKeYjQyk6Uke5hVCj/b3aOsHT8R7LWebRbf0LDHTfRv4lehHc3g9eETNH3gKHwnqV0oCgpOx6MflfVxXBaGko1Ewa50Se+WIBriQ4AKdQIAP9NIA8gHiEwqS2/85y/lwvDhJA/QHi6PYb+Ii3cByj2QsrYXlcAv24IFP+lW8qES0Eh8jLYZBsDZFpq861Ga9CW0I6fRy21ySeJQzLDphVVrB7wjaiqYXrstXIrKz55QuCRu+PiUKeZU2pZJSmkE8PEsOufn6NmtN4uVryPe9bQs7btvXE+9o4v);whiteSpace=wrap;html=1;fillStyle=solid;strokeWidth=3;labelBackgroundColor=none;fillColor=default;gradientColor=none;gradientDirection=east;points=[[0,0.23,0,0,0],[0,0.43,0,0,0],[0,0.63,0,0,0],[0,0.82,0,0,0],[0.77,0,0,0,0],[1,0.23,0,0,0],[1,0.5,0,0,0]];" vertex="1" parent="R5HYlvq3iJc6gxoxcBGq-33">
            <mxGeometry width="110" height="168" as="geometry" />
          </mxCell>
        </UserObject>
        <mxCell id="R5HYlvq3iJc6gxoxcBGq-35" value="&lt;b&gt;RegFile&lt;/b&gt;" style="text;html=1;strokeColor=none;fillColor=none;align=center;verticalAlign=middle;whiteSpace=wrap;rounded=0;points=[];fontSize=16;" vertex="1" parent="R5HYlvq3iJc6gxoxcBGq-33">
          <mxGeometry x="9.53844036697248" y="6" width="50.45871559633027" height="14" as="geometry" />
        </mxCell>
        <mxCell id="kMRfGGtFjhl7jiztXsIQ-11" value="&lt;div style=&quot;&quot;&gt;&lt;b style=&quot;background-color: initial;&quot;&gt;&lt;font color=&quot;#ff33ff&quot; style=&quot;font-size: 10px;&quot;&gt;reg_WE&lt;/font&gt;&lt;/b&gt;&lt;/div&gt;" style="text;html=1;strokeColor=none;fillColor=none;align=left;verticalAlign=middle;whiteSpace=wrap;rounded=0;points=[];fontSize=16;rotation=0;" vertex="1" parent="R5HYlvq3iJc6gxoxcBGq-33">
          <mxGeometry x="20" y="122" width="40" height="15.5" as="geometry" />
        </mxCell>
        <mxCell id="R5HYlvq3iJc6gxoxcBGq-36" value="" style="group;fontFamily=Helvetica;fontSize=12;fontColor=default;" vertex="1" connectable="0" parent="R5HYlvq3iJc6gxoxcBGq-1">
          <mxGeometry x="559.0000000000002" y="-342" width="27.27" height="60" as="geometry" />
        </mxCell>
        <mxCell id="R5HYlvq3iJc6gxoxcBGq-37" value="" style="shape=stencil(rZThbsIgFIWfhr9LC2GNPx1u74GIlohAgOn29rv1UmOn7bbOpGl6zqEfF3opYSK1MmhCq5awFaG0riu4gz6h5kXKFLTK6B1lNHJtNSYpR7/XJ7PJBWFcq6PJXcpeSbWEMd3FhPLOAcR4lwbJVQ4waRy8W30grEz/WdQT5WgEmOKgs46lbHQJfZtNbh5Grr+R/wRmApyxnWJiLdV+F/2729wtJ8juK9wEfXzwRz26A1ML7QHWuCsAHxIegFjMQAwJlwaej3ieQaj5AMH5f4vgvypCWZ/0RHuCP9ISTGyNtXh4JwA/Dugo8OSDVCaX2knz0utmhctQ3vp4SVH12d0jcNPoZxf/VmfjCw==);whiteSpace=wrap;html=1;fillStyle=solid;strokeWidth=3;labelBackgroundColor=none;fontFamily=Helvetica;fontSize=12;fontColor=default;" vertex="1" parent="R5HYlvq3iJc6gxoxcBGq-36">
          <mxGeometry width="27.27" height="60" as="geometry" />
        </mxCell>
        <mxCell id="R5HYlvq3iJc6gxoxcBGq-38" value="&lt;b style=&quot;font-size: 16px;&quot;&gt;+&lt;/b&gt;" style="text;html=1;strokeColor=none;fillColor=none;align=center;verticalAlign=middle;whiteSpace=wrap;rounded=0;points=[];fontSize=12;fontFamily=Helvetica;fontColor=default;" vertex="1" parent="R5HYlvq3iJc6gxoxcBGq-36">
          <mxGeometry x="14.52" y="26.25" width="7.499999999999999" height="7.5" as="geometry" />
        </mxCell>
        <mxCell id="R5HYlvq3iJc6gxoxcBGq-39" style="edgeStyle=orthogonalEdgeStyle;shape=connector;rounded=0;orthogonalLoop=1;jettySize=auto;html=1;exitX=1;exitY=0.25;exitDx=0;exitDy=0;entryX=0;entryY=0.23;entryDx=0;entryDy=0;entryPerimeter=0;labelBackgroundColor=default;strokeColor=default;strokeWidth=3;fontFamily=Helvetica;fontSize=12;fontColor=default;endArrow=none;endFill=0;" edge="1" parent="R5HYlvq3iJc6gxoxcBGq-1" target="R5HYlvq3iJc6gxoxcBGq-34">
          <mxGeometry relative="1" as="geometry">
            <mxPoint x="228" y="-254" as="sourcePoint" />
          </mxGeometry>
        </mxCell>
        <mxCell id="R5HYlvq3iJc6gxoxcBGq-40" style="edgeStyle=orthogonalEdgeStyle;shape=connector;rounded=0;orthogonalLoop=1;jettySize=auto;html=1;exitX=1;exitY=0.25;exitDx=0;exitDy=0;entryX=0;entryY=0.75;entryDx=0;entryDy=0;labelBackgroundColor=default;strokeColor=default;strokeWidth=3;fontFamily=Helvetica;fontSize=12;fontColor=default;endArrow=none;endFill=0;" edge="1" parent="R5HYlvq3iJc6gxoxcBGq-1" target="R5HYlvq3iJc6gxoxcBGq-7">
          <mxGeometry relative="1" as="geometry">
            <Array as="points">
              <mxPoint x="270" y="-254" />
              <mxPoint x="270" y="-47" />
            </Array>
            <mxPoint x="228" y="-254" as="sourcePoint" />
          </mxGeometry>
        </mxCell>
        <mxCell id="R5HYlvq3iJc6gxoxcBGq-41" style="edgeStyle=orthogonalEdgeStyle;shape=connector;rounded=0;orthogonalLoop=1;jettySize=auto;html=1;exitX=1;exitY=0.25;exitDx=0;exitDy=0;entryX=0;entryY=0.43;entryDx=0;entryDy=0;entryPerimeter=0;labelBackgroundColor=default;strokeColor=default;strokeWidth=3;fontFamily=Helvetica;fontSize=12;fontColor=default;endArrow=none;endFill=0;" edge="1" parent="R5HYlvq3iJc6gxoxcBGq-1" target="R5HYlvq3iJc6gxoxcBGq-34">
          <mxGeometry relative="1" as="geometry">
            <Array as="points">
              <mxPoint x="270" y="-254" />
              <mxPoint x="270" y="-220" />
            </Array>
            <mxPoint x="228" y="-254" as="sourcePoint" />
          </mxGeometry>
        </mxCell>
        <mxCell id="R5HYlvq3iJc6gxoxcBGq-42" style="edgeStyle=orthogonalEdgeStyle;shape=connector;rounded=0;orthogonalLoop=1;jettySize=auto;html=1;entryX=0;entryY=0.63;entryDx=0;entryDy=0;entryPerimeter=0;labelBackgroundColor=default;strokeColor=default;strokeWidth=3;fontFamily=Helvetica;fontSize=12;fontColor=default;endArrow=none;endFill=0;exitX=1;exitY=0.5;exitDx=0;exitDy=0;" edge="1" parent="R5HYlvq3iJc6gxoxcBGq-1" source="R5HYlvq3iJc6gxoxcBGq-78" target="R5HYlvq3iJc6gxoxcBGq-34">
          <mxGeometry relative="1" as="geometry">
            <Array as="points">
              <mxPoint x="270" y="-254" />
              <mxPoint x="270" y="-186" />
            </Array>
            <mxPoint x="228" y="-254" as="sourcePoint" />
          </mxGeometry>
        </mxCell>
        <mxCell id="R5HYlvq3iJc6gxoxcBGq-43" style="edgeStyle=orthogonalEdgeStyle;shape=connector;rounded=0;orthogonalLoop=1;jettySize=auto;html=1;exitX=0.5;exitY=0;exitDx=0;exitDy=0;entryX=0;entryY=0.2;entryDx=0;entryDy=0;labelBackgroundColor=default;strokeColor=default;strokeWidth=3;fontFamily=Helvetica;fontSize=12;fontColor=default;endArrow=none;endFill=0;" edge="1" parent="R5HYlvq3iJc6gxoxcBGq-1" source="R5HYlvq3iJc6gxoxcBGq-3" target="R5HYlvq3iJc6gxoxcBGq-51">
          <mxGeometry relative="1" as="geometry">
            <mxPoint x="806" y="-210" as="sourcePoint" />
            <Array as="points">
              <mxPoint x="529" y="10" />
              <mxPoint x="720" y="10" />
              <mxPoint x="720" y="-210" />
            </Array>
          </mxGeometry>
        </mxCell>
        <mxCell id="R5HYlvq3iJc6gxoxcBGq-44" style="edgeStyle=orthogonalEdgeStyle;shape=connector;rounded=0;orthogonalLoop=1;jettySize=auto;html=1;exitX=1;exitY=0.5;exitDx=0;exitDy=0;exitPerimeter=0;entryX=0;entryY=0.25;entryDx=0;entryDy=0;labelBackgroundColor=default;strokeColor=default;strokeWidth=3;fontFamily=Helvetica;fontSize=12;fontColor=default;endArrow=none;endFill=0;" edge="1" parent="R5HYlvq3iJc6gxoxcBGq-1" source="R5HYlvq3iJc6gxoxcBGq-34" target="R5HYlvq3iJc6gxoxcBGq-80">
          <mxGeometry relative="1" as="geometry">
            <Array as="points">
              <mxPoint x="450" y="-208" />
              <mxPoint x="450" y="50" />
              <mxPoint x="270" y="50" />
              <mxPoint x="270" y="113" />
            </Array>
            <mxPoint x="716" y="-140" as="targetPoint" />
          </mxGeometry>
        </mxCell>
        <mxCell id="R5HYlvq3iJc6gxoxcBGq-45" style="edgeStyle=orthogonalEdgeStyle;shape=connector;rounded=0;orthogonalLoop=1;jettySize=auto;html=1;exitX=1;exitY=0.5;exitDx=0;exitDy=0;entryX=0;entryY=0.75;entryDx=0;entryDy=0;labelBackgroundColor=default;strokeColor=default;strokeWidth=3;fontFamily=Helvetica;fontSize=12;fontColor=default;endArrow=none;endFill=0;" edge="1" parent="R5HYlvq3iJc6gxoxcBGq-1" source="R5HYlvq3iJc6gxoxcBGq-7" target="R5HYlvq3iJc6gxoxcBGq-13">
          <mxGeometry relative="1" as="geometry">
            <Array as="points">
              <mxPoint x="490" y="-57" />
              <mxPoint x="490" y="-145" />
            </Array>
          </mxGeometry>
        </mxCell>
        <mxCell id="R5HYlvq3iJc6gxoxcBGq-46" style="edgeStyle=orthogonalEdgeStyle;shape=connector;rounded=0;orthogonalLoop=1;jettySize=auto;html=1;exitX=1;exitY=0.5;exitDx=0;exitDy=0;entryX=0;entryY=0.75;entryDx=0;entryDy=0;labelBackgroundColor=default;strokeColor=default;strokeWidth=3;fontFamily=Helvetica;fontSize=12;fontColor=default;endArrow=none;endFill=0;" edge="1" parent="R5HYlvq3iJc6gxoxcBGq-1" source="R5HYlvq3iJc6gxoxcBGq-7" target="R5HYlvq3iJc6gxoxcBGq-37">
          <mxGeometry relative="1" as="geometry">
            <Array as="points">
              <mxPoint x="490" y="-57" />
              <mxPoint x="490" y="-297" />
            </Array>
          </mxGeometry>
        </mxCell>
        <mxCell id="R5HYlvq3iJc6gxoxcBGq-47" style="edgeStyle=orthogonalEdgeStyle;shape=connector;rounded=0;orthogonalLoop=1;jettySize=auto;html=1;exitX=1;exitY=0.5;exitDx=0;exitDy=0;exitPerimeter=0;entryX=0;entryY=0.25;entryDx=0;entryDy=0;labelBackgroundColor=default;strokeColor=default;strokeWidth=3;fontFamily=Helvetica;fontSize=12;fontColor=default;endArrow=none;endFill=0;" edge="1" parent="R5HYlvq3iJc6gxoxcBGq-1" source="R5HYlvq3iJc6gxoxcBGq-34" target="R5HYlvq3iJc6gxoxcBGq-13">
          <mxGeometry relative="1" as="geometry">
            <Array as="points">
              <mxPoint x="450" y="-208" />
              <mxPoint x="450" y="-175" />
            </Array>
          </mxGeometry>
        </mxCell>
        <mxCell id="R5HYlvq3iJc6gxoxcBGq-48" value="" style="group" vertex="1" connectable="0" parent="R5HYlvq3iJc6gxoxcBGq-1">
          <mxGeometry x="771" y="-231" width="20" height="100" as="geometry" />
        </mxCell>
        <mxCell id="R5HYlvq3iJc6gxoxcBGq-49" style="edgeStyle=orthogonalEdgeStyle;shape=connector;rounded=0;orthogonalLoop=1;jettySize=auto;html=1;exitX=0.5;exitY=0.07;exitDx=0;exitDy=0;exitPerimeter=0;labelBackgroundColor=default;strokeColor=default;strokeWidth=3;fontFamily=Helvetica;fontSize=12;fontColor=default;endArrow=none;endFill=0;" edge="1" parent="R5HYlvq3iJc6gxoxcBGq-48" source="R5HYlvq3iJc6gxoxcBGq-51">
          <mxGeometry relative="1" as="geometry">
            <mxPoint x="10" y="-9" as="targetPoint" />
          </mxGeometry>
        </mxCell>
        <mxCell id="R5HYlvq3iJc6gxoxcBGq-50" value="&lt;font color=&quot;#ff00ff&quot;&gt;reg_SEL&lt;/font&gt;" style="edgeLabel;html=1;align=center;verticalAlign=middle;resizable=0;points=[];fontSize=12;fontFamily=Helvetica;fontColor=default;" vertex="1" connectable="0" parent="R5HYlvq3iJc6gxoxcBGq-49">
          <mxGeometry x="0.8762" y="-1" relative="1" as="geometry">
            <mxPoint y="-11" as="offset" />
          </mxGeometry>
        </mxCell>
        <UserObject label="" tooltip="Mux 2" id="R5HYlvq3iJc6gxoxcBGq-51">
          <mxCell style="shape=stencil(tZTdcoMgEIWfhstkFGptL1vTTF8DkUQmCA7QmPbpiwIdf6JtksZhHPcc/NzFBYAyXeKaAhiVAG0AhHEc2buNGxcjH2JdU2KcdsSK4ZxT52ij5IE2rDAewURJFTOti95A9GLntANlRAphIUwKPXB6voVhJuy70cnB/Oc/fbQOQm0/UVFDlU/bqQBuryY/3I38eDfy07+R18kIHaWXQ+IRI7kkO5RZZa5FUJZjctgr+SGKs+nUuG2/iRHsSh7p7DIuFRoAnIkeAA0JcXIz4vkKxCiJ+E+FEC41XfivVp9ZS5TtGOduuy8Afp3QUuyTrDFhxicP0tcQpxtXBpFcqh/XRcGbQxt66rfjsKeRD9tJKyxIGfAVK4pwmu2kMCvNvqhHwJ7cULYv/RmYS154qy3HpQnRtrvGR19vvJ9d8S7vyWaYtHynugO7E74B);whiteSpace=wrap;html=1;fillStyle=solid;strokeWidth=3;labelBackgroundColor=none;fillColor=default;gradientColor=none;gradientDirection=east;rotation=0;" vertex="1" parent="R5HYlvq3iJc6gxoxcBGq-48">
            <mxGeometry y="1" width="20" height="100" as="geometry" />
          </mxCell>
        </UserObject>
        <mxCell id="R5HYlvq3iJc6gxoxcBGq-52" value="&lt;b style=&quot;font-size: 16px;&quot;&gt;0&lt;/b&gt;" style="text;html=1;strokeColor=none;fillColor=none;align=center;verticalAlign=middle;whiteSpace=wrap;rounded=0;points=[];fontSize=16;" vertex="1" parent="R5HYlvq3iJc6gxoxcBGq-48">
          <mxGeometry x="7.4666666666666615" y="14.714285714285722" width="5.333333333333333" height="8.571428571428571" as="geometry" />
        </mxCell>
        <mxCell id="R5HYlvq3iJc6gxoxcBGq-53" value="&lt;b style=&quot;font-size: 16px;&quot;&gt;1&lt;/b&gt;" style="text;html=1;strokeColor=none;fillColor=none;align=center;verticalAlign=middle;whiteSpace=wrap;rounded=0;points=[];fontSize=16;" vertex="1" parent="R5HYlvq3iJc6gxoxcBGq-48">
          <mxGeometry x="7.4666666666666615" y="33" width="5.333333333333333" height="8.571428571428571" as="geometry" />
        </mxCell>
        <mxCell id="R5HYlvq3iJc6gxoxcBGq-54" value="&lt;b style=&quot;font-size: 16px;&quot;&gt;2&lt;/b&gt;" style="text;html=1;strokeColor=none;fillColor=none;align=center;verticalAlign=middle;whiteSpace=wrap;rounded=0;points=[];fontSize=16;" vertex="1" parent="R5HYlvq3iJc6gxoxcBGq-48">
          <mxGeometry x="7.4666666666666615" y="52.70999999999998" width="5.333333333333333" height="8.571428571428571" as="geometry" />
        </mxCell>
        <mxCell id="R5HYlvq3iJc6gxoxcBGq-55" value="&lt;b style=&quot;font-size: 16px;&quot;&gt;3&lt;/b&gt;" style="text;html=1;strokeColor=none;fillColor=none;align=center;verticalAlign=middle;whiteSpace=wrap;rounded=0;points=[];fontSize=16;" vertex="1" parent="R5HYlvq3iJc6gxoxcBGq-48">
          <mxGeometry x="7.4666666666666615" y="73" width="5.333333333333333" height="8.571428571428571" as="geometry" />
        </mxCell>
        <mxCell id="R5HYlvq3iJc6gxoxcBGq-56" style="edgeStyle=orthogonalEdgeStyle;shape=connector;rounded=0;orthogonalLoop=1;jettySize=auto;html=1;exitX=1;exitY=0.5;exitDx=0;exitDy=0;entryX=0;entryY=0.4;entryDx=0;entryDy=0;labelBackgroundColor=default;strokeColor=default;strokeWidth=3;fontFamily=Helvetica;fontSize=12;fontColor=default;endArrow=none;endFill=0;" edge="1" parent="R5HYlvq3iJc6gxoxcBGq-1" source="R5HYlvq3iJc6gxoxcBGq-24" target="R5HYlvq3iJc6gxoxcBGq-51">
          <mxGeometry relative="1" as="geometry">
            <Array as="points">
              <mxPoint x="690" y="-210" />
              <mxPoint x="690" y="-190" />
            </Array>
          </mxGeometry>
        </mxCell>
        <mxCell id="R5HYlvq3iJc6gxoxcBGq-57" style="edgeStyle=orthogonalEdgeStyle;shape=connector;rounded=0;orthogonalLoop=1;jettySize=auto;html=1;exitX=1;exitY=0.5;exitDx=0;exitDy=0;entryX=0;entryY=0.6;entryDx=0;entryDy=0;labelBackgroundColor=default;strokeColor=default;strokeWidth=3;fontFamily=Helvetica;fontSize=12;fontColor=default;endArrow=none;endFill=0;" edge="1" parent="R5HYlvq3iJc6gxoxcBGq-1" source="R5HYlvq3iJc6gxoxcBGq-7" target="R5HYlvq3iJc6gxoxcBGq-51">
          <mxGeometry relative="1" as="geometry">
            <Array as="points">
              <mxPoint x="660" y="-57" />
              <mxPoint x="660" y="-170" />
            </Array>
          </mxGeometry>
        </mxCell>
        <mxCell id="R5HYlvq3iJc6gxoxcBGq-58" style="edgeStyle=orthogonalEdgeStyle;shape=connector;rounded=0;orthogonalLoop=1;jettySize=auto;html=1;exitX=0;exitY=0.82;exitDx=0;exitDy=0;exitPerimeter=0;labelBackgroundColor=default;strokeColor=default;strokeWidth=3;fontFamily=Helvetica;fontSize=12;fontColor=default;endArrow=none;endFill=0;entryX=1;entryY=0.5;entryDx=0;entryDy=0;" edge="1" parent="R5HYlvq3iJc6gxoxcBGq-1" source="R5HYlvq3iJc6gxoxcBGq-34" target="R5HYlvq3iJc6gxoxcBGq-51">
          <mxGeometry relative="1" as="geometry">
            <mxPoint x="440" y="-20" as="targetPoint" />
            <Array as="points">
              <mxPoint x="240" y="-154" />
              <mxPoint x="240" y="-20" />
              <mxPoint x="820" y="-20" />
              <mxPoint x="820" y="-180" />
            </Array>
          </mxGeometry>
        </mxCell>
        <mxCell id="R5HYlvq3iJc6gxoxcBGq-59" value="" style="group" vertex="1" connectable="0" parent="R5HYlvq3iJc6gxoxcBGq-1">
          <mxGeometry x="210" y="-410" width="27.27" height="60" as="geometry" />
        </mxCell>
        <mxCell id="R5HYlvq3iJc6gxoxcBGq-60" style="edgeStyle=orthogonalEdgeStyle;shape=connector;rounded=0;orthogonalLoop=1;jettySize=auto;html=1;exitX=0;exitY=0.25;exitDx=0;exitDy=0;labelBackgroundColor=default;strokeColor=default;strokeWidth=3;fontFamily=Helvetica;fontSize=12;fontColor=default;endArrow=none;endFill=0;" edge="1" parent="R5HYlvq3iJc6gxoxcBGq-59" source="R5HYlvq3iJc6gxoxcBGq-61">
          <mxGeometry relative="1" as="geometry">
            <mxPoint x="-30" y="15" as="targetPoint" />
          </mxGeometry>
        </mxCell>
        <mxCell id="R5HYlvq3iJc6gxoxcBGq-61" value="" style="shape=stencil(rZThbsIgFIWfhr9LC2GNPx1u74GIlohAgOn29rv1UmOn7bbOpGl6zqEfF3opYSK1MmhCq5awFaG0riu4gz6h5kXKFLTK6B1lNHJtNSYpR7/XJ7PJBWFcq6PJXcpeSbWEMd3FhPLOAcR4lwbJVQ4waRy8W30grEz/WdQT5WgEmOKgs46lbHQJfZtNbh5Grr+R/wRmApyxnWJiLdV+F/2729wtJ8juK9wEfXzwRz26A1ML7QHWuCsAHxIegFjMQAwJlwaej3ieQaj5AMH5f4vgvypCWZ/0RHuCP9ISTGyNtXh4JwA/Dugo8OSDVCaX2knz0utmhctQ3vp4SVH12d0jcNPoZxf/VmfjCw==);whiteSpace=wrap;html=1;fillStyle=solid;strokeWidth=3;labelBackgroundColor=none;" vertex="1" parent="R5HYlvq3iJc6gxoxcBGq-59">
          <mxGeometry width="27.27" height="60" as="geometry" />
        </mxCell>
        <mxCell id="R5HYlvq3iJc6gxoxcBGq-62" value="&lt;b style=&quot;font-size: 16px;&quot;&gt;+&lt;/b&gt;" style="text;html=1;strokeColor=none;fillColor=none;align=center;verticalAlign=middle;whiteSpace=wrap;rounded=0;points=[];fontSize=16;" vertex="1" parent="R5HYlvq3iJc6gxoxcBGq-59">
          <mxGeometry x="14.52" y="26.25" width="7.499999999999999" height="7.5" as="geometry" />
        </mxCell>
        <mxCell id="R5HYlvq3iJc6gxoxcBGq-63" value="&lt;b&gt;&lt;font style=&quot;font-size: 18px;&quot;&gt;4&lt;/font&gt;&lt;/b&gt;" style="text;html=1;align=center;verticalAlign=middle;resizable=0;points=[];autosize=1;strokeColor=none;fillColor=none;fontSize=12;fontFamily=Helvetica;fontColor=default;" vertex="1" parent="R5HYlvq3iJc6gxoxcBGq-1">
          <mxGeometry x="155" y="-416" width="30" height="40" as="geometry" />
        </mxCell>
        <mxCell id="R5HYlvq3iJc6gxoxcBGq-64" value="" style="group" vertex="1" connectable="0" parent="R5HYlvq3iJc6gxoxcBGq-1">
          <mxGeometry x="741" y="-372" width="20" height="79" as="geometry" />
        </mxCell>
        <mxCell id="R5HYlvq3iJc6gxoxcBGq-65" style="edgeStyle=orthogonalEdgeStyle;shape=connector;rounded=0;orthogonalLoop=1;jettySize=auto;html=1;exitX=0.5;exitY=0.07;exitDx=0;exitDy=0;exitPerimeter=0;labelBackgroundColor=default;strokeColor=default;strokeWidth=3;fontFamily=Helvetica;fontSize=12;fontColor=default;endArrow=none;endFill=0;" edge="1" parent="R5HYlvq3iJc6gxoxcBGq-64" source="R5HYlvq3iJc6gxoxcBGq-67">
          <mxGeometry relative="1" as="geometry">
            <mxPoint x="10" y="-8" as="targetPoint" />
          </mxGeometry>
        </mxCell>
        <UserObject label="" tooltip="Mux 2" id="R5HYlvq3iJc6gxoxcBGq-67">
          <mxCell style="shape=stencil(tZRtb4MgEMc/DS/bIMSYvdzsmn4NRFpJEQyw2u3TDwQXH6pbu80Q490ff9zBcQDnpiINAwhWAO8AQkkC3dvZbbBxNIlpGLXBdyGak0KwoBir1Zm1vLQRwWXFNLdexa8APrs5fuCcKikdhCtpRspAdzDCpfsXXgMsLv8erS1Kg6NxS9TMMh3DDl6A9g+TU/hf5OzPYt6mEzTM7ock08TviQ7nzrN0kDgvCD2ftHqT5c1wGuKLZCb0cq0ubHEb1xLtAYLLAQCPCUn6a8TTA4hJEMmPEqFCGbZyrs6/sJc4P3IhwqVcAXw7wVPcl2oI5TYGD7KX3s52IQ2qhNJfarB6bQlt2XVYjuOaxtH0kzZE0qrH17ws+55zVNJuDP9gEYEG7pbxUxU7VaFEGSWfTggT4X33TBvUYBxu7ngX9+wyzEq+84a22jk+AQ==);whiteSpace=wrap;html=1;fillStyle=solid;strokeWidth=3;labelBackgroundColor=none;fillColor=default;gradientColor=none;gradientDirection=east;rotation=0;" vertex="1" parent="R5HYlvq3iJc6gxoxcBGq-64">
            <mxGeometry width="20" height="79" as="geometry" />
          </mxCell>
        </UserObject>
        <mxCell id="R5HYlvq3iJc6gxoxcBGq-68" value="&lt;b style=&quot;font-size: 16px;&quot;&gt;0&lt;/b&gt;" style="text;html=1;strokeColor=none;fillColor=none;align=center;verticalAlign=middle;whiteSpace=wrap;rounded=0;points=[];fontSize=16;" vertex="1" parent="R5HYlvq3iJc6gxoxcBGq-64">
          <mxGeometry x="7.466666666666697" y="13.714285714285722" width="5.333333333333333" height="8.571428571428571" as="geometry" />
        </mxCell>
        <mxCell id="R5HYlvq3iJc6gxoxcBGq-69" value="&lt;b style=&quot;font-size: 16px;&quot;&gt;1&lt;/b&gt;" style="text;html=1;strokeColor=none;fillColor=none;align=center;verticalAlign=middle;whiteSpace=wrap;rounded=0;points=[];fontSize=16;" vertex="1" parent="R5HYlvq3iJc6gxoxcBGq-64">
          <mxGeometry x="7.466666666666697" y="33" width="5.333333333333333" height="8.571428571428571" as="geometry" />
        </mxCell>
        <mxCell id="R5HYlvq3iJc6gxoxcBGq-70" value="&lt;b style=&quot;font-size: 16px;&quot;&gt;2&lt;/b&gt;" style="text;html=1;strokeColor=none;fillColor=none;align=center;verticalAlign=middle;whiteSpace=wrap;rounded=0;points=[];fontSize=16;" vertex="1" parent="R5HYlvq3iJc6gxoxcBGq-64">
          <mxGeometry x="7.466666666666697" y="52.70999999999998" width="5.333333333333333" height="8.571428571428571" as="geometry" />
        </mxCell>
        <mxCell id="R5HYlvq3iJc6gxoxcBGq-71" style="edgeStyle=orthogonalEdgeStyle;shape=connector;rounded=0;orthogonalLoop=1;jettySize=auto;html=1;exitX=1;exitY=0.5;exitDx=0;exitDy=0;entryX=0;entryY=0.75;entryDx=0;entryDy=0;labelBackgroundColor=default;strokeColor=default;strokeWidth=3;fontFamily=Helvetica;fontSize=12;fontColor=default;endArrow=none;endFill=0;" edge="1" parent="R5HYlvq3iJc6gxoxcBGq-1" source="R5HYlvq3iJc6gxoxcBGq-37" target="R5HYlvq3iJc6gxoxcBGq-67">
          <mxGeometry relative="1" as="geometry" />
        </mxCell>
        <mxCell id="R5HYlvq3iJc6gxoxcBGq-72" style="edgeStyle=orthogonalEdgeStyle;shape=connector;rounded=0;orthogonalLoop=1;jettySize=auto;html=1;exitX=1;exitY=0.5;exitDx=0;exitDy=0;entryX=0;entryY=0.5;entryDx=0;entryDy=0;labelBackgroundColor=default;strokeColor=default;strokeWidth=3;fontFamily=Helvetica;fontSize=12;fontColor=default;endArrow=none;endFill=0;" edge="1" parent="R5HYlvq3iJc6gxoxcBGq-1" source="R5HYlvq3iJc6gxoxcBGq-24" target="R5HYlvq3iJc6gxoxcBGq-67">
          <mxGeometry relative="1" as="geometry">
            <Array as="points">
              <mxPoint x="690" y="-210" />
              <mxPoint x="690" y="-332" />
            </Array>
          </mxGeometry>
        </mxCell>
        <mxCell id="R5HYlvq3iJc6gxoxcBGq-73" style="edgeStyle=orthogonalEdgeStyle;shape=connector;rounded=0;orthogonalLoop=1;jettySize=auto;html=1;exitX=1;exitY=0.5;exitDx=0;exitDy=0;entryX=0;entryY=0.25;entryDx=0;entryDy=0;labelBackgroundColor=default;strokeColor=default;strokeWidth=3;fontFamily=Helvetica;fontSize=12;fontColor=default;endArrow=none;endFill=0;" edge="1" parent="R5HYlvq3iJc6gxoxcBGq-1" source="R5HYlvq3iJc6gxoxcBGq-61" target="R5HYlvq3iJc6gxoxcBGq-67">
          <mxGeometry relative="1" as="geometry">
            <Array as="points">
              <mxPoint x="670" y="-380" />
              <mxPoint x="670" y="-352" />
            </Array>
          </mxGeometry>
        </mxCell>
        <mxCell id="R5HYlvq3iJc6gxoxcBGq-74" style="edgeStyle=orthogonalEdgeStyle;shape=connector;rounded=0;orthogonalLoop=1;jettySize=auto;html=1;exitX=1;exitY=0.5;exitDx=0;exitDy=0;entryX=0;entryY=0.8;entryDx=0;entryDy=0;labelBackgroundColor=default;strokeColor=default;strokeWidth=3;fontFamily=Helvetica;fontSize=12;fontColor=default;endArrow=none;endFill=0;" edge="1" parent="R5HYlvq3iJc6gxoxcBGq-1" source="R5HYlvq3iJc6gxoxcBGq-61" target="R5HYlvq3iJc6gxoxcBGq-51">
          <mxGeometry relative="1" as="geometry">
            <Array as="points">
              <mxPoint x="670" y="-380" />
              <mxPoint x="670" y="-250" />
              <mxPoint x="740" y="-250" />
              <mxPoint x="740" y="-150" />
            </Array>
          </mxGeometry>
        </mxCell>
        <mxCell id="R5HYlvq3iJc6gxoxcBGq-75" style="edgeStyle=orthogonalEdgeStyle;shape=connector;rounded=0;orthogonalLoop=1;jettySize=auto;html=1;exitX=1;exitY=0.5;exitDx=0;exitDy=0;labelBackgroundColor=default;strokeColor=default;strokeWidth=3;fontFamily=Helvetica;fontSize=12;fontColor=default;endArrow=none;endFill=0;entryX=0;entryY=0.5;entryDx=0;entryDy=0;" edge="1" parent="R5HYlvq3iJc6gxoxcBGq-1" source="R5HYlvq3iJc6gxoxcBGq-67" target="R5HYlvq3iJc6gxoxcBGq-32">
          <mxGeometry relative="1" as="geometry">
            <mxPoint x="70" y="-480" as="targetPoint" />
            <Array as="points">
              <mxPoint x="781" y="-333" />
              <mxPoint x="781" y="-420" />
              <mxPoint x="60" y="-420" />
              <mxPoint x="60" y="-254" />
            </Array>
          </mxGeometry>
        </mxCell>
        <mxCell id="R5HYlvq3iJc6gxoxcBGq-77" style="edgeStyle=orthogonalEdgeStyle;shape=connector;rounded=0;orthogonalLoop=1;jettySize=auto;html=1;exitX=0.5;exitY=1;exitDx=0;exitDy=0;labelBackgroundColor=default;strokeColor=default;strokeWidth=3;fontFamily=Helvetica;fontSize=12;fontColor=default;endArrow=none;endFill=0;" edge="1" parent="R5HYlvq3iJc6gxoxcBGq-1" source="R5HYlvq3iJc6gxoxcBGq-78">
          <mxGeometry relative="1" as="geometry">
            <mxPoint x="210" y="-210" as="targetPoint" />
          </mxGeometry>
        </mxCell>
        <UserObject label="" tooltip="Mux 2" id="R5HYlvq3iJc6gxoxcBGq-78">
          <mxCell style="shape=stencil(tZRtb4MgEMc/DS+7KGTx9WbX9Gsg0kqKYIDVdp9+PC4+1G52myHGuz/+7oDjACp1gzsKYNYAtAUQFpl9WbMPJoom1h0lJvjOWDFccRoUbZQ80Z7VJhKYaKhixqnoDWQvdo4bqCRSCAthUuiRMtAtDDNh/80uARbDX6P19BzszkZoqaEq+PPgBXD3Y3AiXUdxfs/N/yvhbJJxvgaMSutZ2n9UVpicjkq+i/pmOh12ZzsTktzKM108sXsLTQDOxACA/ppQPIB4hEC41HRlnJtVuAaQT6oCrkesScIX0kI9oPLAOA/94A7g2wmOYr9khwkzMSlQvCa72IYEieRSfanBStoS2tDL8K6OF46i6SZtsCBNwresrlO7O0hhNpp90PF+e3dP2bGJTbKSvI6SW05IE6Kdf6a9cTD2N3fc5z270LNr672hoXvHJw==);whiteSpace=wrap;html=1;fillStyle=solid;strokeWidth=3;labelBackgroundColor=none;fillColor=default;gradientColor=none;gradientDirection=east;fontFamily=Helvetica;fontSize=11;fontColor=default;" vertex="1" parent="R5HYlvq3iJc6gxoxcBGq-1">
            <mxGeometry x="200.0000000000001" y="-284" width="20" height="60" as="geometry" />
          </mxCell>
        </UserObject>
        <mxCell id="R5HYlvq3iJc6gxoxcBGq-79" value="" style="group;strokeWidth=3;" vertex="1" connectable="0" parent="R5HYlvq3iJc6gxoxcBGq-1">
          <mxGeometry x="341" y="98" width="20" height="60" as="geometry" />
        </mxCell>
        <mxCell id="kMRfGGtFjhl7jiztXsIQ-0" style="edgeStyle=orthogonalEdgeStyle;shape=connector;rounded=0;orthogonalLoop=1;jettySize=auto;html=1;exitX=0.5;exitY=0.12;exitDx=0;exitDy=0;exitPerimeter=0;labelBackgroundColor=default;strokeColor=default;strokeWidth=3;fontFamily=Helvetica;fontSize=12;fontColor=default;endArrow=none;endFill=0;" edge="1" parent="R5HYlvq3iJc6gxoxcBGq-79" source="R5HYlvq3iJc6gxoxcBGq-80">
          <mxGeometry relative="1" as="geometry">
            <mxPoint x="10.14285714285711" y="-8" as="targetPoint" />
          </mxGeometry>
        </mxCell>
        <UserObject label="" tooltip="Mux 2" id="R5HYlvq3iJc6gxoxcBGq-80">
          <mxCell style="shape=stencil(rZRtb4MgEMc/DS/bKMT4erNr+jUQr5WUggFWu336ocDiQ3VrN0OMd3/8cXfAIVKYmjaAcFIjskMY54l7ObP1JgkmNQ0w631XqjktBXjFWK3O0PLKBgKXNWhuO5W8oeTFzekGKZiS0kG4kmakDHQHo1y6f5Obh4XlP4K1xZl3NG6JC1jQXki9F+H90+T838jbbIJO8eOQdMJ4KDpSOM9SuUlRUnY+afUuq7vhNLTbypkQ5Yu6wmIZ1xKNAMHlAEDGhDT7MyJ7AjEm5L/KgwllYGVbnX+hlKQ4ciH8zVkB/Diho7gv1VDGbYgd5a/Rznc+DaaE0t+qt6K2hLZwG57G8ZEmwewmbahkdcRfeFXFxnBU0m4M/4SAwAN3C/xUh3ZSKlEFqUvHh4nJvn+mXWQwDncr3sc9uwuzE997fevrHV8=);whiteSpace=wrap;html=1;fillStyle=solid;strokeWidth=3;labelBackgroundColor=none;fillColor=default;gradientColor=none;gradientDirection=east;" vertex="1" parent="R5HYlvq3iJc6gxoxcBGq-79">
            <mxGeometry width="20" height="60" as="geometry" />
          </mxCell>
        </UserObject>
        <mxCell id="R5HYlvq3iJc6gxoxcBGq-81" value="&lt;b style=&quot;font-size: 16px;&quot;&gt;0&lt;/b&gt;" style="text;html=1;strokeColor=none;fillColor=none;align=center;verticalAlign=middle;whiteSpace=wrap;rounded=0;points=[];fontSize=16;" vertex="1" parent="R5HYlvq3iJc6gxoxcBGq-79">
          <mxGeometry x="5.333333333333333" y="13.714285714285712" width="6.666666666666666" height="8.571428571428571" as="geometry" />
        </mxCell>
        <mxCell id="R5HYlvq3iJc6gxoxcBGq-82" value="&lt;b style=&quot;font-size: 16px;&quot;&gt;1&lt;/b&gt;" style="text;html=1;strokeColor=none;fillColor=none;align=center;verticalAlign=middle;whiteSpace=wrap;rounded=0;points=[];fontSize=16;" vertex="1" parent="R5HYlvq3iJc6gxoxcBGq-79">
          <mxGeometry x="5.333333333333333" y="36" width="6.666666666666666" height="8.571428571428571" as="geometry" />
        </mxCell>
        <mxCell id="R5HYlvq3iJc6gxoxcBGq-83" style="edgeStyle=orthogonalEdgeStyle;shape=connector;rounded=0;orthogonalLoop=1;jettySize=auto;html=1;exitX=1;exitY=0.5;exitDx=0;exitDy=0;entryX=0;entryY=0.25;entryDx=0;entryDy=0;labelBackgroundColor=default;strokeColor=default;strokeWidth=3;fontFamily=Helvetica;fontSize=11;fontColor=default;endArrow=none;endFill=0;" edge="1" parent="R5HYlvq3iJc6gxoxcBGq-1" source="R5HYlvq3iJc6gxoxcBGq-80" target="R5HYlvq3iJc6gxoxcBGq-3">
          <mxGeometry relative="1" as="geometry" />
        </mxCell>
        <mxCell id="R5HYlvq3iJc6gxoxcBGq-84" style="edgeStyle=orthogonalEdgeStyle;shape=connector;rounded=0;orthogonalLoop=1;jettySize=auto;html=1;exitX=0.5;exitY=0;exitDx=0;exitDy=0;labelBackgroundColor=default;strokeColor=default;strokeWidth=3;fontFamily=Helvetica;fontSize=12;fontColor=default;endArrow=none;endFill=0;" edge="1" parent="R5HYlvq3iJc6gxoxcBGq-1" source="R5HYlvq3iJc6gxoxcBGq-85">
          <mxGeometry relative="1" as="geometry">
            <mxPoint x="530" y="90" as="targetPoint" />
            <Array as="points">
              <mxPoint x="690" y="10" />
              <mxPoint x="529" y="10" />
            </Array>
          </mxGeometry>
        </mxCell>
        <mxCell id="kMRfGGtFjhl7jiztXsIQ-6" style="edgeStyle=orthogonalEdgeStyle;shape=connector;rounded=0;orthogonalLoop=1;jettySize=auto;html=1;exitX=0.75;exitY=0.5;exitDx=0;exitDy=0;exitPerimeter=0;labelBackgroundColor=default;strokeColor=default;strokeWidth=3;fontFamily=Helvetica;fontSize=12;fontColor=default;endArrow=none;endFill=0;" edge="1" parent="R5HYlvq3iJc6gxoxcBGq-1" source="R5HYlvq3iJc6gxoxcBGq-85">
          <mxGeometry relative="1" as="geometry">
            <mxPoint x="675" y="-100" as="targetPoint" />
            <mxPoint x="690" y="-121" as="sourcePoint" />
          </mxGeometry>
        </mxCell>
        <mxCell id="R5HYlvq3iJc6gxoxcBGq-85" value="" style="shape=stencil(tZTbDoIwDIafZrdkMIzXBvU9BlZZxI2MCfr2FirKQYzHhCzp/9OvaTtgIipSmQMLeMrEkgVByPHAsOqHssghcaSV0ioZZ0BO4azZQ6U27kpQOgWrXO2KFeMLfKd+RJQYrRGijC56TsdHmFQac/mJYNybUZnzNaYoxwoHcGBJ9Ullwfp1cA/r/wrr/wc7mMLPuNybD+bbVhpSRITK1AZFFMtkv7PmqDfjrElvayw8MG62yjK6XU+6ymV970ZGax9MCfd2B1vnzwbWEjKlO4Q+IPyAEH6PeKeNZgMTQ8KPf2q8TdpoP41KP4xGuAA=);whiteSpace=wrap;html=1;strokeWidth=3;rotation=-180;" vertex="1" parent="R5HYlvq3iJc6gxoxcBGq-1">
          <mxGeometry x="680" y="-131" width="20" height="20" as="geometry" />
        </mxCell>
        <mxCell id="R5HYlvq3iJc6gxoxcBGq-86" style="edgeStyle=orthogonalEdgeStyle;shape=connector;rounded=0;orthogonalLoop=1;jettySize=auto;html=1;exitX=1;exitY=0.5;exitDx=0;exitDy=0;entryX=0.5;entryY=1;entryDx=0;entryDy=0;labelBackgroundColor=default;strokeColor=default;strokeWidth=3;fontFamily=Helvetica;fontSize=11;fontColor=default;endArrow=none;endFill=0;" edge="1" parent="R5HYlvq3iJc6gxoxcBGq-1" source="R5HYlvq3iJc6gxoxcBGq-24" target="R5HYlvq3iJc6gxoxcBGq-85">
          <mxGeometry relative="1" as="geometry">
            <Array as="points">
              <mxPoint x="690" y="-210" />
              <mxPoint x="690" y="-131" />
            </Array>
          </mxGeometry>
        </mxCell>
        <mxCell id="R5HYlvq3iJc6gxoxcBGq-87" value="&lt;b&gt;Memory&lt;/b&gt;" style="text;html=1;strokeColor=none;fillColor=none;align=center;verticalAlign=middle;whiteSpace=wrap;rounded=0;points=[];fontSize=16;" vertex="1" parent="R5HYlvq3iJc6gxoxcBGq-1">
          <mxGeometry x="409.54" y="100" width="70.46" height="14" as="geometry" />
        </mxCell>
        <mxCell id="SbKfSG5ickLT-9Ht9uUm-0" value="&lt;div style=&quot;&quot;&gt;&lt;b style=&quot;background-color: initial;&quot;&gt;&lt;font style=&quot;font-size: 12px;&quot; color=&quot;#ff0000&quot;&gt;REG_pc&lt;/font&gt;&lt;/b&gt;&lt;/div&gt;" style="text;html=1;strokeColor=none;fillColor=none;align=left;verticalAlign=middle;whiteSpace=wrap;rounded=0;points=[];fontSize=16;" vertex="1" parent="R5HYlvq3iJc6gxoxcBGq-1">
          <mxGeometry x="75" y="-312" width="50" height="28" as="geometry" />
        </mxCell>
        <mxCell id="SbKfSG5ickLT-9Ht9uUm-1" value="&lt;div style=&quot;&quot;&gt;&lt;b style=&quot;background-color: initial;&quot;&gt;&lt;font style=&quot;font-size: 12px;&quot; color=&quot;#ff0000&quot;&gt;REG_instr&lt;/font&gt;&lt;/b&gt;&lt;/div&gt;" style="text;html=1;strokeColor=none;fillColor=none;align=left;verticalAlign=middle;whiteSpace=wrap;rounded=0;points=[];fontSize=16;" vertex="1" parent="R5HYlvq3iJc6gxoxcBGq-1">
          <mxGeometry x="185" y="-312" width="50" height="28" as="geometry" />
        </mxCell>
        <mxCell id="SbKfSG5ickLT-9Ht9uUm-2" value="&lt;div style=&quot;&quot;&gt;&lt;b style=&quot;background-color: initial;&quot;&gt;&lt;font style=&quot;font-size: 12px;&quot; color=&quot;#ff0000&quot;&gt;MUX_rs1&lt;/font&gt;&lt;/b&gt;&lt;/div&gt;" style="text;html=1;strokeColor=none;fillColor=none;align=left;verticalAlign=middle;whiteSpace=wrap;rounded=0;points=[];fontSize=16;" vertex="1" parent="R5HYlvq3iJc6gxoxcBGq-1">
          <mxGeometry x="538.27" y="-283" width="50" height="28" as="geometry" />
        </mxCell>
        <mxCell id="SbKfSG5ickLT-9Ht9uUm-3" value="&lt;div style=&quot;&quot;&gt;&lt;b style=&quot;background-color: initial;&quot;&gt;&lt;font style=&quot;font-size: 12px;&quot; color=&quot;#ff0000&quot;&gt;MUX_rs2&lt;/font&gt;&lt;/b&gt;&lt;/div&gt;" style="text;html=1;strokeColor=none;fillColor=none;align=left;verticalAlign=middle;whiteSpace=wrap;rounded=0;points=[];fontSize=16;" vertex="1" parent="R5HYlvq3iJc6gxoxcBGq-1">
          <mxGeometry x="535.27" y="-145" width="50" height="32" as="geometry" />
        </mxCell>
        <mxCell id="SbKfSG5ickLT-9Ht9uUm-6" style="edgeStyle=orthogonalEdgeStyle;shape=connector;rounded=0;orthogonalLoop=1;jettySize=auto;html=1;exitX=0.5;exitY=0;exitDx=0;exitDy=0;labelBackgroundColor=default;strokeColor=default;strokeWidth=3;fontFamily=Helvetica;fontSize=12;fontColor=default;endArrow=none;endFill=0;entryX=0.5;entryY=0;entryDx=0;entryDy=0;" edge="1" parent="R5HYlvq3iJc6gxoxcBGq-1" source="SbKfSG5ickLT-9Ht9uUm-4" target="R5HYlvq3iJc6gxoxcBGq-85">
          <mxGeometry relative="1" as="geometry">
            <mxPoint x="740" y="50" as="targetPoint" />
            <mxPoint x="554" y="50" as="sourcePoint" />
            <Array as="points">
              <mxPoint x="555" y="40" />
              <mxPoint x="529" y="40" />
              <mxPoint x="529" y="10" />
              <mxPoint x="690" y="10" />
            </Array>
          </mxGeometry>
        </mxCell>
        <mxCell id="kMRfGGtFjhl7jiztXsIQ-5" style="edgeStyle=orthogonalEdgeStyle;shape=connector;rounded=0;orthogonalLoop=1;jettySize=auto;html=1;exitX=0.75;exitY=0.5;exitDx=0;exitDy=0;exitPerimeter=0;labelBackgroundColor=default;strokeColor=default;strokeWidth=3;fontFamily=Helvetica;fontSize=12;fontColor=default;endArrow=none;endFill=0;" edge="1" parent="R5HYlvq3iJc6gxoxcBGq-1" source="SbKfSG5ickLT-9Ht9uUm-4">
          <mxGeometry relative="1" as="geometry">
            <mxPoint x="590" y="60" as="targetPoint" />
          </mxGeometry>
        </mxCell>
        <mxCell id="SbKfSG5ickLT-9Ht9uUm-4" value="" style="shape=stencil(tZTbDoIwDIafZrdmMIzXBvU9JlZZgI2MeXp7CxUVcMRjQpb0/9dvabvBRFylsgQW8pSJBQvDiOOC4bEbyqqExJF2kFbJdQ7kVM6aDI5q464EpVOwytWuWDI+xz31J+LEaI0QZXTVcR58hEmlMZefCMYnUzrmfI0pKvGEAhxYUgNSWbh6HdzBBr/CBv/BDtrQxr9AzzzsPkXEqPiGKOK1TLKdNXu9GWZ5va2x8MS42SrP6YKNVFXK+uoNjNYuzAHu5fYGz8ca1hJypR8IXUD0ASH6HvFOGc0EPE3C9+9rb5M2mE+j0j+jES4=);whiteSpace=wrap;html=1;strokeWidth=3;rotation=0;fillColor=#f8cecc;strokeColor=#000000;" vertex="1" parent="R5HYlvq3iJc6gxoxcBGq-1">
          <mxGeometry x="545" y="50" width="20" height="20" as="geometry" />
        </mxCell>
        <mxCell id="SbKfSG5ickLT-9Ht9uUm-7" value="&lt;div style=&quot;&quot;&gt;&lt;b style=&quot;background-color: initial;&quot;&gt;&lt;font style=&quot;font-size: 12px;&quot; color=&quot;#ff0000&quot;&gt;EXTND_Imm&lt;/font&gt;&lt;/b&gt;&lt;/div&gt;" style="text;html=1;strokeColor=none;fillColor=none;align=left;verticalAlign=middle;whiteSpace=wrap;rounded=0;points=[];fontSize=16;" vertex="1" parent="R5HYlvq3iJc6gxoxcBGq-1">
          <mxGeometry x="291" y="-90" width="69" height="32" as="geometry" />
        </mxCell>
        <mxCell id="SbKfSG5ickLT-9Ht9uUm-9" value="&lt;div style=&quot;&quot;&gt;&lt;b style=&quot;background-color: initial;&quot;&gt;&lt;font style=&quot;font-size: 12px;&quot; color=&quot;#ff0000&quot;&gt;MUX_mem_addrs&lt;/font&gt;&lt;/b&gt;&lt;/div&gt;" style="text;html=1;strokeColor=none;fillColor=none;align=left;verticalAlign=middle;whiteSpace=wrap;rounded=0;points=[];fontSize=16;" vertex="1" parent="R5HYlvq3iJc6gxoxcBGq-1">
          <mxGeometry x="281" y="149" width="50" height="32" as="geometry" />
        </mxCell>
        <mxCell id="SbKfSG5ickLT-9Ht9uUm-10" value="&lt;div style=&quot;&quot;&gt;&lt;b style=&quot;background-color: initial;&quot;&gt;&lt;font style=&quot;font-size: 12px;&quot; color=&quot;#ff0000&quot;&gt;MUX_pc&lt;/font&gt;&lt;/b&gt;&lt;/div&gt;" style="text;html=1;strokeColor=none;fillColor=none;align=left;verticalAlign=middle;whiteSpace=wrap;rounded=0;points=[];fontSize=16;" vertex="1" parent="R5HYlvq3iJc6gxoxcBGq-1">
          <mxGeometry x="765" y="-315" width="50" height="28" as="geometry" />
        </mxCell>
        <mxCell id="SbKfSG5ickLT-9Ht9uUm-11" value="&lt;div style=&quot;&quot;&gt;&lt;b style=&quot;background-color: initial;&quot;&gt;&lt;font style=&quot;font-size: 12px;&quot; color=&quot;#ff0000&quot;&gt;MUX_regfile&lt;/font&gt;&lt;/b&gt;&lt;/div&gt;" style="text;html=1;strokeColor=none;fillColor=none;align=left;verticalAlign=middle;whiteSpace=wrap;rounded=0;points=[];fontSize=16;" vertex="1" parent="R5HYlvq3iJc6gxoxcBGq-1">
          <mxGeometry x="740" y="-134" width="50" height="28" as="geometry" />
        </mxCell>
        <mxCell id="SbKfSG5ickLT-9Ht9uUm-12" value="&lt;div style=&quot;&quot;&gt;&lt;b style=&quot;background-color: initial;&quot;&gt;&lt;font style=&quot;font-size: 12px;&quot; color=&quot;#ff0000&quot;&gt;ADDER_Imm&lt;/font&gt;&lt;/b&gt;&lt;/div&gt;" style="text;html=1;strokeColor=none;fillColor=none;align=left;verticalAlign=middle;whiteSpace=wrap;rounded=0;points=[];fontSize=16;" vertex="1" parent="R5HYlvq3iJc6gxoxcBGq-1">
          <mxGeometry x="536.27" y="-372" width="83.73" height="28" as="geometry" />
        </mxCell>
        <mxCell id="SbKfSG5ickLT-9Ht9uUm-13" value="&lt;div style=&quot;&quot;&gt;&lt;b style=&quot;background-color: initial;&quot;&gt;&lt;font style=&quot;font-size: 12px;&quot; color=&quot;#ff0000&quot;&gt;ADDER_plus4&lt;/font&gt;&lt;/b&gt;&lt;/div&gt;" style="text;html=1;strokeColor=none;fillColor=none;align=left;verticalAlign=middle;whiteSpace=wrap;rounded=0;points=[];fontSize=16;" vertex="1" parent="R5HYlvq3iJc6gxoxcBGq-1">
          <mxGeometry x="239.26999999999998" y="-421" width="83.73" height="28" as="geometry" />
        </mxCell>
        <mxCell id="SbKfSG5ickLT-9Ht9uUm-14" value="&lt;div style=&quot;&quot;&gt;&lt;b style=&quot;background-color: initial;&quot;&gt;&lt;font style=&quot;font-size: 12px;&quot; color=&quot;#ff0000&quot;&gt;regFILE&lt;/font&gt;&lt;/b&gt;&lt;/div&gt;" style="text;html=1;strokeColor=none;fillColor=none;align=left;verticalAlign=middle;whiteSpace=wrap;rounded=0;points=[];fontSize=16;" vertex="1" parent="R5HYlvq3iJc6gxoxcBGq-1">
          <mxGeometry x="331" y="-326" width="50" height="28" as="geometry" />
        </mxCell>
        <mxCell id="SbKfSG5ickLT-9Ht9uUm-15" value="&lt;div style=&quot;&quot;&gt;&lt;b style=&quot;background-color: initial;&quot;&gt;&lt;font style=&quot;font-size: 12px;&quot; color=&quot;#ff0000&quot;&gt;ALU&lt;/font&gt;&lt;/b&gt;&lt;/div&gt;" style="text;html=1;strokeColor=none;fillColor=none;align=left;verticalAlign=middle;whiteSpace=wrap;rounded=0;points=[];fontSize=16;" vertex="1" parent="R5HYlvq3iJc6gxoxcBGq-1">
          <mxGeometry x="620" y="-171" width="30" height="28" as="geometry" />
        </mxCell>
        <mxCell id="SbKfSG5ickLT-9Ht9uUm-16" value="&lt;div style=&quot;&quot;&gt;&lt;b style=&quot;background-color: initial;&quot;&gt;&lt;font color=&quot;#3399ff&quot; style=&quot;font-size: 10px;&quot;&gt;data_bus&lt;/font&gt;&lt;/b&gt;&lt;/div&gt;" style="text;html=1;strokeColor=none;fillColor=none;align=left;verticalAlign=middle;whiteSpace=wrap;rounded=0;points=[];fontSize=16;" vertex="1" parent="R5HYlvq3iJc6gxoxcBGq-1">
          <mxGeometry x="185" y="-20" width="70" height="32" as="geometry" />
        </mxCell>
        <mxCell id="IMj_oJtGbL9TJ4CqIow7-0" value="&lt;div style=&quot;&quot;&gt;&lt;b style=&quot;background-color: initial;&quot;&gt;&lt;font color=&quot;#33ff33&quot; style=&quot;font-size: 10px;&quot;&gt;data_mem_IN&lt;/font&gt;&lt;/b&gt;&lt;/div&gt;" style="text;html=1;strokeColor=none;fillColor=none;align=left;verticalAlign=middle;whiteSpace=wrap;rounded=0;points=[];fontSize=16;" vertex="1" parent="R5HYlvq3iJc6gxoxcBGq-1">
          <mxGeometry x="563" y="61" width="60" height="32" as="geometry" />
        </mxCell>
        <mxCell id="IMj_oJtGbL9TJ4CqIow7-1" value="&lt;div style=&quot;&quot;&gt;&lt;b style=&quot;background-color: initial;&quot;&gt;&lt;font color=&quot;#33ff33&quot; style=&quot;font-size: 10px;&quot;&gt;data_mem_OUT&lt;/font&gt;&lt;/b&gt;&lt;/div&gt;" style="text;html=1;strokeColor=none;fillColor=none;align=left;verticalAlign=middle;whiteSpace=wrap;rounded=0;points=[];fontSize=16;" vertex="1" parent="R5HYlvq3iJc6gxoxcBGq-1">
          <mxGeometry x="450" y="58" width="60" height="32" as="geometry" />
        </mxCell>
        <mxCell id="IMj_oJtGbL9TJ4CqIow7-2" value="&lt;div style=&quot;&quot;&gt;&lt;b style=&quot;background-color: initial;&quot;&gt;&lt;font color=&quot;#33ff33&quot; style=&quot;font-size: 10px;&quot;&gt;mem_addrs&lt;/font&gt;&lt;/b&gt;&lt;/div&gt;" style="text;html=1;strokeColor=none;fillColor=none;align=left;verticalAlign=middle;whiteSpace=wrap;rounded=0;points=[];fontSize=16;rotation=60;" vertex="1" parent="R5HYlvq3iJc6gxoxcBGq-1">
          <mxGeometry x="350.5" y="82" width="60" height="32" as="geometry" />
        </mxCell>
        <mxCell id="kMRfGGtFjhl7jiztXsIQ-1" value="&lt;div style=&quot;&quot;&gt;&lt;b style=&quot;background-color: initial;&quot;&gt;&lt;font color=&quot;#ff33ff&quot; style=&quot;font-size: 10px;&quot;&gt;addrs_SEL&lt;/font&gt;&lt;/b&gt;&lt;/div&gt;" style="text;html=1;strokeColor=none;fillColor=none;align=left;verticalAlign=middle;whiteSpace=wrap;rounded=0;points=[];fontSize=16;rotation=30;" vertex="1" parent="R5HYlvq3iJc6gxoxcBGq-1">
          <mxGeometry x="298.5" y="66.25" width="54" height="15.5" as="geometry" />
        </mxCell>
        <mxCell id="kMRfGGtFjhl7jiztXsIQ-2" value="&lt;div style=&quot;&quot;&gt;&lt;b style=&quot;background-color: initial;&quot;&gt;&lt;font color=&quot;#ff33ff&quot; style=&quot;font-size: 10px;&quot;&gt;pc_EN&lt;/font&gt;&lt;/b&gt;&lt;/div&gt;" style="text;html=1;strokeColor=none;fillColor=none;align=left;verticalAlign=middle;whiteSpace=wrap;rounded=0;points=[];fontSize=16;rotation=0;" vertex="1" parent="R5HYlvq3iJc6gxoxcBGq-1">
          <mxGeometry x="80" y="-208" width="40" height="15.5" as="geometry" />
        </mxCell>
        <mxCell id="kMRfGGtFjhl7jiztXsIQ-3" value="&lt;div style=&quot;&quot;&gt;&lt;b style=&quot;background-color: initial;&quot;&gt;&lt;font color=&quot;#ff33ff&quot; style=&quot;font-size: 10px;&quot;&gt;instr_EN&lt;/font&gt;&lt;/b&gt;&lt;/div&gt;" style="text;html=1;strokeColor=none;fillColor=none;align=left;verticalAlign=middle;whiteSpace=wrap;rounded=0;points=[];fontSize=16;rotation=0;" vertex="1" parent="R5HYlvq3iJc6gxoxcBGq-1">
          <mxGeometry x="190" y="-208" width="40" height="15.5" as="geometry" />
        </mxCell>
        <mxCell id="kMRfGGtFjhl7jiztXsIQ-4" value="&lt;div style=&quot;&quot;&gt;&lt;b style=&quot;background-color: initial;&quot;&gt;&lt;font color=&quot;#ff33ff&quot; style=&quot;font-size: 10px;&quot;&gt;pc_SEL&lt;/font&gt;&lt;/b&gt;&lt;/div&gt;" style="text;html=1;strokeColor=none;fillColor=none;align=left;verticalAlign=middle;whiteSpace=wrap;rounded=0;points=[];fontSize=16;rotation=0;" vertex="1" parent="R5HYlvq3iJc6gxoxcBGq-1">
          <mxGeometry x="731" y="-399.75" width="40" height="15.5" as="geometry" />
        </mxCell>
        <mxCell id="kMRfGGtFjhl7jiztXsIQ-7" value="&lt;div style=&quot;&quot;&gt;&lt;b style=&quot;background-color: initial;&quot;&gt;&lt;font color=&quot;#ff33ff&quot; style=&quot;font-size: 10px;&quot;&gt;mem_in_EN&lt;/font&gt;&lt;/b&gt;&lt;/div&gt;" style="text;html=1;strokeColor=none;fillColor=none;align=left;verticalAlign=middle;whiteSpace=wrap;rounded=0;points=[];fontSize=16;rotation=30;" vertex="1" parent="R5HYlvq3iJc6gxoxcBGq-1">
          <mxGeometry x="567" y="39.5" width="54" height="15.5" as="geometry" />
        </mxCell>
        <mxCell id="kMRfGGtFjhl7jiztXsIQ-8" value="&lt;div style=&quot;&quot;&gt;&lt;b style=&quot;background-color: initial;&quot;&gt;&lt;font color=&quot;#ff33ff&quot; style=&quot;font-size: 10px;&quot;&gt;ALU_mem_EN&lt;/font&gt;&lt;/b&gt;&lt;/div&gt;" style="text;html=1;strokeColor=none;fillColor=none;align=left;verticalAlign=middle;whiteSpace=wrap;rounded=0;points=[];fontSize=16;rotation=30;" vertex="1" parent="R5HYlvq3iJc6gxoxcBGq-1">
          <mxGeometry x="620" y="-113" width="54" height="15.5" as="geometry" />
        </mxCell>
        <mxCell id="kMRfGGtFjhl7jiztXsIQ-9" value="&lt;div style=&quot;&quot;&gt;&lt;b style=&quot;background-color: initial;&quot;&gt;&lt;font color=&quot;#ff33ff&quot; style=&quot;font-size: 10px;&quot;&gt;rs1_SEL&lt;/font&gt;&lt;/b&gt;&lt;/div&gt;" style="text;html=1;strokeColor=none;fillColor=none;align=left;verticalAlign=middle;whiteSpace=wrap;rounded=0;points=[];fontSize=16;rotation=0;" vertex="1" parent="R5HYlvq3iJc6gxoxcBGq-1">
          <mxGeometry x="505" y="-298" width="40" height="15.5" as="geometry" />
        </mxCell>
        <mxCell id="kMRfGGtFjhl7jiztXsIQ-10" value="&lt;div style=&quot;&quot;&gt;&lt;b style=&quot;background-color: initial;&quot;&gt;&lt;font color=&quot;#ff33ff&quot; style=&quot;font-size: 10px;&quot;&gt;rs2_SEL&lt;/font&gt;&lt;/b&gt;&lt;/div&gt;" style="text;html=1;strokeColor=none;fillColor=none;align=left;verticalAlign=middle;whiteSpace=wrap;rounded=0;points=[];fontSize=16;rotation=0;" vertex="1" parent="R5HYlvq3iJc6gxoxcBGq-1">
          <mxGeometry x="535" y="-215.75" width="40" height="15.5" as="geometry" />
        </mxCell>
        <mxCell id="kMRfGGtFjhl7jiztXsIQ-12" value="&lt;div style=&quot;&quot;&gt;&lt;b style=&quot;background-color: initial;&quot;&gt;&lt;font style=&quot;font-size: 12px;&quot; color=&quot;#ff0000&quot;&gt;TRIBUF_mem&lt;/font&gt;&lt;/b&gt;&lt;/div&gt;" style="text;html=1;strokeColor=none;fillColor=none;align=left;verticalAlign=middle;whiteSpace=wrap;rounded=0;points=[];fontSize=16;" vertex="1" parent="R5HYlvq3iJc6gxoxcBGq-1">
          <mxGeometry x="460" y="38.25" width="50" height="28" as="geometry" />
        </mxCell>
        <mxCell id="kMRfGGtFjhl7jiztXsIQ-13" value="&lt;div style=&quot;&quot;&gt;&lt;b style=&quot;background-color: initial;&quot;&gt;&lt;font style=&quot;font-size: 12px;&quot; color=&quot;#ff0000&quot;&gt;TRIBUF_ALU&lt;/font&gt;&lt;/b&gt;&lt;/div&gt;" style="text;html=1;strokeColor=none;fillColor=none;align=left;verticalAlign=middle;whiteSpace=wrap;rounded=0;points=[];fontSize=16;rotation=90;" vertex="1" parent="R5HYlvq3iJc6gxoxcBGq-1">
          <mxGeometry x="681" y="-113" width="50" height="28" as="geometry" />
        </mxCell>
        <mxCell id="kMRfGGtFjhl7jiztXsIQ-14" value="&lt;div style=&quot;&quot;&gt;&lt;b style=&quot;background-color: initial;&quot;&gt;&lt;font color=&quot;#ff33ff&quot; style=&quot;font-size: 10px;&quot;&gt;mem_WE&lt;/font&gt;&lt;/b&gt;&lt;/div&gt;" style="text;html=1;strokeColor=none;fillColor=none;align=left;verticalAlign=middle;whiteSpace=wrap;rounded=0;points=[];fontSize=16;rotation=0;" vertex="1" parent="R5HYlvq3iJc6gxoxcBGq-1">
          <mxGeometry x="604" y="130" width="106" height="19" as="geometry" />
        </mxCell>
        <mxCell id="kMRfGGtFjhl7jiztXsIQ-15" value="&lt;div style=&quot;&quot;&gt;&lt;b style=&quot;background-color: initial;&quot;&gt;&lt;font color=&quot;#ff33ff&quot; style=&quot;font-size: 10px;&quot;&gt;mem_MODE&lt;/font&gt;&lt;/b&gt;&lt;/div&gt;" style="text;html=1;strokeColor=none;fillColor=none;align=left;verticalAlign=middle;whiteSpace=wrap;rounded=0;points=[];fontSize=16;rotation=0;" vertex="1" parent="R5HYlvq3iJc6gxoxcBGq-1">
          <mxGeometry x="589" y="146.5" width="106" height="19" as="geometry" />
        </mxCell>
      </root>
    </mxGraphModel>
  </diagram>
</mxfile>
